<svg width="61" height="68" viewBox="0 0 61 68" fill="none" xmlns="http://www.w3.org/2000/svg">
<path fill-rule="evenodd" clip-rule="evenodd" d="M18.5785 18.4336C15.9104 20.3902 15.0431 22.4713 15.0431 24.0689V60.1721C15.0431 64.3262 11.6756 67.6937 7.52154 67.6937C3.36751 67.6937 0 64.3262 0 60.1721V24.0689C0 16.5277 4.18393 10.3351 9.6826 6.30275C15.1857 2.26712 22.424 0 30.0862 0C37.7483 0 44.9866 2.26712 50.4897 6.30275C55.9884 10.3351 60.1723 16.5277 60.1723 24.0689V60.1721C60.1723 64.3262 56.8048 67.6937 52.6508 67.6937C48.4968 67.6937 45.1292 64.3262 45.1292 60.1721V24.0689C45.1292 22.4713 44.2619 20.3902 41.5938 18.4336C38.9301 16.4802 34.8861 15.0431 30.0862 15.0431C25.2863 15.0431 21.2422 16.4802 18.5785 18.4336Z" fill="white"/>
</svg>
