<svg width="54" height="87" viewBox="0 0 54 87" fill="none" xmlns="http://www.w3.org/2000/svg">
<path fill-rule="evenodd" clip-rule="evenodd" d="M38.36 68.0346C38.36 63.8805 41.7275 60.513 45.8815 60.513C50.0356 60.513 53.4031 63.8805 53.4031 68.0346C53.4031 73.446 51.3259 78.2407 47.613 81.6272C43.9832 84.9379 39.2471 86.498 34.4875 86.498C24.3306 86.498 15.0433 79.3526 15.0432 68.0346L15.0432 32.2778L7.5219 32.2778C3.36786 32.2778 0.000184817 28.9104 0.00018439 24.7563C0.000183963 20.6022 3.38505 17.2999 7.5219 17.2347L15.0433 17.2347L15.0433 7.52186C15.0433 3.36782 18.9395 0.000322998 23.0935 0.000322689C27.2476 0.00032238 30.0863 3.36783 30.0863 7.52186L30.0863 17.2999C30.0863 17.2999 42.4971 17.2999 46.2581 17.2999C50.0191 17.2999 53.371 20.8697 53.4031 24.8214C53.4336 28.5829 50.0186 32.2778 46.6338 32.2778L30.0471 32.3429C30.0471 32.3429 30.0078 65.3663 30.0471 68.0346C30.0863 70.7028 32.3035 71.6018 34.4875 71.455C36.5007 71.3196 38.36 69.9507 38.36 68.0346Z" fill="#FF8743"/>
</svg>
