<svg width="64" height="68" viewBox="0 0 64 68" fill="none" xmlns="http://www.w3.org/2000/svg">
<path fill-rule="evenodd" clip-rule="evenodd" d="M11.2779 18.4336C9.65822 20.3902 9.13172 22.4713 9.13172 24.0689V60.1723C9.13172 64.3264 7.08751 67.6939 4.56586 67.6939C2.0442 67.6939 0 64.3264 0 60.1723V24.0689C0 16.5277 2.5398 10.3351 5.8777 6.30275C9.21831 2.26712 13.6122 0 18.2634 0C22.9147 0 27.3086 2.26712 30.6492 6.30275C31.1026 6.85056 31.5414 7.43824 31.961 8.06376C32.3806 7.43824 32.8194 6.85056 33.2729 6.30275C36.6135 2.26712 41.0073 0 45.6586 0C50.3098 0 54.7037 2.26712 58.0443 6.30275C61.3822 10.3351 63.922 16.5277 63.922 24.0689V60.1723C63.922 64.3264 61.8778 67.6939 59.3562 67.6939C56.8345 67.6939 54.7903 64.3264 54.7903 60.1723V24.0689C54.7903 22.4713 54.2638 20.3902 52.6441 18.4336C51.0272 16.4802 48.5723 15.0431 45.6586 15.0431C42.7449 15.0431 40.29 16.4802 38.673 18.4336C37.0534 20.3902 36.5269 22.4713 36.5269 24.0689V60.1723C36.5269 64.3264 34.4827 67.6939 31.961 67.6939C29.4394 67.6939 27.3951 64.3264 27.3951 60.1723V24.0689C27.3951 22.4713 26.8686 20.3902 25.249 18.4336C23.6321 16.4802 21.1772 15.0431 18.2634 15.0431C15.3497 15.0431 12.8948 16.4802 11.2779 18.4336Z" fill="#FF177B"/>
</svg>
