<svg width="140" height="90" viewBox="0 0 140 90" fill="none" xmlns="http://www.w3.org/2000/svg">
<path fill-rule="evenodd" clip-rule="evenodd" d="M24.7004 24.5077C21.1531 27.1091 20 29.8759 20 32V80C20 85.5229 15.5228 90 10 90C4.47715 90 0 85.5229 0 80V32C0 21.9738 5.56259 13.7407 12.8732 8.3796C20.1896 3.01417 29.813 0 40 0C50.187 0 59.8103 3.01417 67.1268 8.3796C68.12 9.10793 69.0809 9.88926 70 10.7209C70.9191 9.88926 71.88 9.10793 72.8732 8.3796C80.1897 3.01417 89.813 0 100 0C110.187 0 119.81 3.01417 127.127 8.3796C134.437 13.7407 140 21.9738 140 32V80C140 85.5229 135.523 90 130 90C124.477 90 120 85.5229 120 80V32C120 29.8759 118.847 27.1091 115.3 24.5077C111.758 21.9107 106.382 20 100 20C93.6184 20 88.2418 21.9107 84.7004 24.5077C81.1531 27.1091 80 29.8759 80 32V80C80 85.5229 75.5229 90 70 90C64.4772 90 60 85.5229 60 80V32C60 29.8759 58.8469 27.1091 55.2996 24.5077C51.7582 21.9107 46.3816 20 40 20C33.6184 20 28.2418 21.9107 24.7004 24.5077Z" fill="#FF177B"/>
</svg>
