<svg width="61" height="164" viewBox="0 0 61 164" fill="none" xmlns="http://www.w3.org/2000/svg">
<path fill-rule="evenodd" clip-rule="evenodd" d="M18.5785 44.5998C15.9104 49.3338 15.0431 54.3691 15.0431 58.2345V145.586C15.0431 155.636 11.6756 163.784 7.52154 163.784C3.36751 163.784 0 155.636 0 145.586V58.2345C0 39.9885 4.18393 25.0057 9.6826 15.2494C15.1857 5.48528 22.424 0 30.0862 0C37.7483 0 44.9866 5.48528 50.4897 15.2494C55.9884 25.0057 60.1723 39.9885 60.1723 58.2345V145.586C60.1723 155.636 56.8048 163.784 52.6508 163.784C48.4968 163.784 45.1292 155.636 45.1292 145.586V58.2345C45.1292 54.3691 44.2619 49.3338 41.5938 44.5998C38.9301 39.8737 34.8861 36.3966 30.0862 36.3966C25.2863 36.3966 21.2422 39.8737 18.5785 44.5998Z" fill="#FF177B"/>
</svg>
