<svg width="33" height="87" viewBox="0 0 33 87" fill="none" xmlns="http://www.w3.org/2000/svg">
<path fill-rule="evenodd" clip-rule="evenodd" d="M23.2856 68.0346C23.2856 63.8805 25.3298 60.513 27.8515 60.513C30.3731 60.513 32.4173 63.8805 32.4173 68.0346C32.4173 73.446 31.1564 78.2407 28.9025 81.6272C26.6991 84.9379 23.8241 86.498 20.9349 86.498C14.7693 86.498 9.13148 79.3526 9.13147 68.0346L9.13147 32.2778L4.56573 32.2778C2.04408 32.2778 -0.000232474 28.9104 -0.000232733 24.7563C-0.000232992 20.6022 2.05451 17.2999 4.56573 17.2347L9.13148 17.2347L9.13148 7.52186C9.13148 3.36782 11.4966 0.000322998 14.0183 0.000322689C16.5399 0.00032238 18.2632 3.36783 18.2632 7.52186L18.2632 17.2999C18.2632 17.2999 25.797 17.2999 28.0801 17.2999C30.3632 17.2999 32.3979 20.8697 32.4174 24.8214C32.4359 28.5829 30.3628 32.2778 28.3081 32.2778L18.2393 32.3429C18.2393 32.3429 18.2155 65.3663 18.2394 68.0346C18.2632 70.7028 19.6091 71.6018 20.9349 71.455C22.157 71.3196 23.2856 69.9507 23.2856 68.0346Z" fill="#FF177B"/>
</svg>
