<svg width="54" height="210" viewBox="0 0 54 210" fill="none" xmlns="http://www.w3.org/2000/svg">
<path fill-rule="evenodd" clip-rule="evenodd" d="M38.36 164.607C38.36 154.556 41.7275 146.409 45.8815 146.409C50.0356 146.409 53.4031 154.556 53.4031 164.607C53.4031 177.7 51.3259 189.301 47.613 197.494C43.9832 205.504 39.2471 209.279 34.4875 209.279C24.3306 209.279 15.0433 191.991 15.0432 164.607L15.0432 78.0941L7.5219 78.0941C3.36786 78.0941 0.000184817 69.9466 0.00018439 59.8958C0.000183963 49.8451 3.38505 41.8551 7.5219 41.6975L15.0433 41.6975L15.0433 18.1973C15.0433 8.14669 18.9395 -0.000955102 23.0935 -0.00095585C27.2476 -0.000956597 30.0863 8.1467 30.0863 18.1973L30.0863 41.8551C30.0863 41.8551 42.4971 41.8551 46.2581 41.8551C50.0191 41.8551 53.371 50.4924 53.4031 60.0534C53.4336 69.1544 50.0186 78.0941 46.6338 78.0941L30.0471 78.2517C30.0471 78.2517 30.0078 158.151 30.0471 164.607C30.0863 171.063 32.3035 173.238 34.4875 172.883C36.5007 172.555 38.36 169.243 38.36 164.607Z" fill="#FF177B"/>
</svg>
