<svg width="106" height="164" viewBox="0 0 106 164" fill="none" xmlns="http://www.w3.org/2000/svg">
<path fill-rule="evenodd" clip-rule="evenodd" d="M18.5785 44.5998C15.9104 49.3338 15.0431 54.3691 15.0431 58.2345V145.586C15.0431 155.637 11.6756 163.785 7.52154 163.785C3.36751 163.785 0 155.637 0 145.586V58.2345C0 39.9885 4.18393 25.0057 9.6826 15.2494C15.1857 5.48528 22.424 0 30.0862 0C37.7483 0 44.9866 5.48528 50.4897 15.2494C51.2367 16.5749 51.9595 17.9967 52.6508 19.5102C53.3421 17.9967 54.0648 16.5749 54.8118 15.2494C60.315 5.48528 67.5532 0 75.2154 0C82.8776 0 90.1158 5.48528 95.619 15.2494C101.118 25.0057 105.302 39.9885 105.302 58.2345V145.586C105.302 155.637 101.934 163.785 97.78 163.785C93.626 163.785 90.2585 155.637 90.2585 145.586V58.2345C90.2585 54.3691 89.3912 49.3338 86.723 44.5998C84.0594 39.8737 80.0153 36.3966 75.2154 36.3966C70.4155 36.3966 66.3714 39.8737 63.7078 44.5998C61.0397 49.3338 60.1723 54.3691 60.1723 58.2345V145.586C60.1723 155.637 56.8048 163.785 52.6508 163.785C48.4968 163.785 45.1292 155.637 45.1292 145.586V58.2345C45.1292 54.3691 44.2619 49.3338 41.5938 44.5998C38.9301 39.8737 34.8861 36.3966 30.0862 36.3966C25.2863 36.3966 21.2422 39.8737 18.5785 44.5998Z" fill="#FF177B"/>
</svg>
