<svg width="9" height="52" viewBox="0 0 9 52" fill="none" xmlns="http://www.w3.org/2000/svg">
<path fill-rule="evenodd" clip-rule="evenodd" d="M4.49103 11.2227C6.97136 11.2227 8.98207 13.2334 8.98207 15.7137L8.98207 47.1509C8.98207 49.6312 6.97137 51.642 4.49104 51.642C2.01071 51.642 5.56549e-06 49.6312 5.37204e-06 47.1509L3.50281e-07 15.7137C1.56826e-07 13.2334 2.0107 11.2227 4.49103 11.2227Z" fill="white"/>
<path d="M8.98207 4.49103C8.98207 6.97136 6.97136 8.98207 4.49103 8.98207C2.0107 8.98207 0 6.97136 0 4.49103C0 2.0107 2.0107 0 4.49103 0C6.97136 0 8.98207 2.0107 8.98207 4.49103Z" fill="white"/>
</svg>
