<svg width="7" height="39" viewBox="0 0 7 39" fill="none" xmlns="http://www.w3.org/2000/svg">
<path fill-rule="evenodd" clip-rule="evenodd" d="M3.33324 8.33398C5.17413 8.33398 6.66648 9.82633 6.66648 11.6672L6.66648 34.9999C6.66648 36.8408 5.17414 38.3331 3.33324 38.3331C1.49235 38.3331 4.1307e-06 36.8408 3.98712e-06 34.9999L2.59978e-07 11.6672C1.16396e-07 9.82633 1.49234 8.33398 3.33324 8.33398Z" fill="white"/>
<path d="M6.66648 3.33324C6.66648 5.17413 5.17413 6.66648 3.33324 6.66648C1.49234 6.66648 0 5.17413 0 3.33324C0 1.49234 1.49234 0 3.33324 0C5.17413 0 6.66648 1.49234 6.66648 3.33324Z" fill="white"/>
</svg>
