<svg width="22" height="122" viewBox="0 0 22 122" fill="none" xmlns="http://www.w3.org/2000/svg">
<path fill-rule="evenodd" clip-rule="evenodd" d="M10.5612 26.4082C16.394 26.4082 21.1224 31.1365 21.1224 36.9692L21.1224 110.896C21.1224 116.729 16.394 121.457 10.5612 121.457C4.72842 121.457 1.30879e-05 116.729 1.2633e-05 110.896L8.23727e-07 36.9692C3.68795e-07 31.1365 4.7284 26.4082 10.5612 26.4082Z" fill="#4D4A9D"/>
<path d="M21.1224 10.561C21.1224 16.3937 16.394 21.1221 10.5612 21.1221C4.7284 21.1221 0 16.3937 0 10.561C0 4.72833 4.7284 0 10.5612 0C16.394 0 21.1224 4.72833 21.1224 10.561Z" fill="#4D4A9D"/>
</svg>
