<svg width="29" height="52" viewBox="0 0 29 52" fill="none" xmlns="http://www.w3.org/2000/svg">
<path fill-rule="evenodd" clip-rule="evenodd" d="M4.49103 0C6.97136 0 8.98207 2.0107 8.98207 4.49103V24.6125L21.9345 16.8116C24.0593 15.5319 26.8191 16.217 28.0988 18.3417C29.3784 20.4664 28.6934 23.2263 26.5686 24.5059L12.5646 32.9401L26.9199 43.5434C28.915 45.0171 29.3377 47.829 27.864 49.8241C26.3904 51.8192 23.5784 52.2419 21.5833 50.7683L8.98207 41.4606V47.1559C8.98207 49.6362 6.97136 51.6469 4.49103 51.6469C2.0107 51.6469 0 49.6362 0 47.1559V4.49103C0 2.0107 2.0107 0 4.49103 0Z" fill="white"/>
</svg>
