<svg width="68" height="122" viewBox="0 0 68 122" fill="none" xmlns="http://www.w3.org/2000/svg">
<path fill-rule="evenodd" clip-rule="evenodd" d="M10.5612 0C16.394 0 21.1224 4.72833 21.1224 10.561V57.8783L51.5816 39.5338C56.5782 36.5245 63.0682 38.1355 66.0775 43.132C69.0868 48.1285 67.4758 54.6184 62.4792 57.6276L29.5472 77.4614L63.3052 102.396C67.9969 105.861 68.9909 112.474 65.5255 117.165C62.06 121.857 55.4473 122.851 50.7557 119.386L21.1224 97.4978V110.891C21.1224 116.723 16.394 121.452 10.5612 121.452C4.7284 121.452 0 116.723 0 110.891V10.561C0 4.72833 4.7284 0 10.5612 0Z" fill="#4D4A9D"/>
</svg>
