<svg width="20" height="35" viewBox="0 0 20 35" fill="none" xmlns="http://www.w3.org/2000/svg">
<path fill-rule="evenodd" clip-rule="evenodd" d="M2.99402 0C4.64757 0 5.98804 1.34047 5.98804 2.99402V16.4083L14.623 11.2077C16.0395 10.3546 17.8794 10.8113 18.7325 12.2278C19.5856 13.6443 19.1289 15.4842 17.7124 16.3373L8.37642 21.9601L17.9466 29.0289C19.2766 30.0114 19.5584 31.886 18.576 33.2161C17.5936 34.5461 15.7189 34.8279 14.3889 33.8455L5.98804 27.6403V31.4372C5.98804 33.0908 4.64757 34.4312 2.99402 34.4312C1.34047 34.4312 0 33.0908 0 31.4372V2.99402C0 1.34047 1.34047 0 2.99402 0Z" fill="white"/>
</svg>
