<svg width="63" height="41" viewBox="0 0 63 41" fill="none" xmlns="http://www.w3.org/2000/svg">
<path fill-rule="evenodd" clip-rule="evenodd" d="M11.0931 11.0065C9.49995 12.1748 8.98207 13.4174 8.98207 14.3713V35.9283C8.98207 38.4086 6.97136 40.4193 4.49103 40.4193C2.0107 40.4193 0 38.4086 0 35.9283V14.3713C0 9.8685 2.49818 6.17099 5.78138 3.76331C9.06724 1.35368 13.3891 0 17.9641 0C22.5392 0 26.861 1.35368 30.1469 3.76331C30.5929 4.0904 31.0245 4.4413 31.4372 4.81479C31.85 4.4413 32.2816 4.0904 32.7276 3.76331C36.0135 1.35368 40.3353 0 44.9103 0C49.4854 0 53.8072 1.35368 57.0931 3.76331C60.3763 6.17099 62.8745 9.8685 62.8745 14.3713V35.9283C62.8745 38.4086 60.8638 40.4193 58.3835 40.4193C55.9031 40.4193 53.8924 38.4086 53.8924 35.9283V14.3713C53.8924 13.4174 53.3745 12.1748 51.7814 11.0065C50.191 9.84017 47.7763 8.98207 44.9103 8.98207C42.0444 8.98207 39.6297 9.84017 38.0393 11.0065C36.4462 12.1748 35.9283 13.4174 35.9283 14.3713V35.9283C35.9283 38.4086 33.9176 40.4193 31.4372 40.4193C28.9569 40.4193 26.9462 38.4086 26.9462 35.9283V14.3713C26.9462 13.4174 26.4283 12.1748 24.8352 11.0065C23.2448 9.84017 20.8301 8.98207 17.9641 8.98207C15.0982 8.98207 12.6835 9.84017 11.0931 11.0065Z" fill="white"/>
</svg>
