<svg width="140" height="160" viewBox="0 0 140 160" fill="none" xmlns="http://www.w3.org/2000/svg">
<path d="M68.2692 148.167C68.2692 148.958 69.1398 149.428 69.7945 148.983C79.2989 142.527 130 106.296 130 68.0826C130 36.0045 103.137 10 70 10C36.8629 10 10 36.0045 10 68.0826C10 99.6003 35.9326 123.844 68.2692 124.731V148.167Z" fill="white"/>
<path d="M68.2692 124.731H78.2692V115.001L68.5433 114.735L68.2692 124.731ZM69.7945 148.983L75.4135 157.255L69.7945 148.983ZM120 68.0826C120 83.1163 109.738 99.2688 96.2 113.566C83.0499 127.455 68.6678 137.659 64.1755 140.711L75.4135 157.255C80.4255 153.851 96.1462 142.712 110.723 127.317C124.912 112.332 140 91.2625 140 68.0826H120ZM70 20C97.9229 20 120 41.831 120 68.0826H140C140 30.178 108.351 0 70 0V20ZM20 68.0826C20 41.831 42.0771 20 70 20V0C31.6487 0 0 30.178 0 68.0826H20ZM68.5433 114.735C40.9823 113.979 20 93.5674 20 68.0826H0C0 105.633 30.8828 133.71 67.9951 134.727L68.5433 114.735ZM58.2692 124.731V148.167H78.2692V124.731H58.2692ZM64.1755 140.711C70.2919 136.556 78.2692 141.092 78.2692 148.167H58.2692C58.2692 156.825 67.9876 162.299 75.4135 157.255L64.1755 140.711Z" fill="#4D4A9D"/>
<path d="M36 57L52 73" stroke="#4D4A9D" stroke-width="5" stroke-linecap="round"/>
<path d="M52 57L36 73" stroke="#4D4A9D" stroke-width="5" stroke-linecap="round"/>
<path d="M88 57L104 73" stroke="#4D4A9D" stroke-width="5" stroke-linecap="round"/>
<path d="M104 57L88 73" stroke="#4D4A9D" stroke-width="5" stroke-linecap="round"/>
<path d="M38.7991 73.3637C34.8736 72.3118 28.612 72.7456 27.6948 76.1686C26.7776 79.5917 30.3586 83.5254 35.6933 84.9548C41.0279 86.3842 46.0961 84.768 47.0133 81.345C47.9305 77.9219 42.7246 74.4155 38.7991 73.3637Z" fill="white"/>
<path d="M100.401 73.3637C104.326 72.3118 110.588 72.7456 111.505 76.1686C112.422 79.5917 108.841 83.5254 103.506 84.9548C98.1718 86.3842 93.1036 84.768 92.1864 81.345C91.2692 77.9219 96.4751 74.4155 100.401 73.3637Z" fill="white"/>
</svg>
