<svg width="36" height="41" viewBox="0 0 36 41" fill="none" xmlns="http://www.w3.org/2000/svg">
<path fill-rule="evenodd" clip-rule="evenodd" d="M11.093 11.0065C9.49995 12.1748 8.98207 13.4174 8.98207 14.3713V35.9282C8.98207 38.4085 6.97136 40.4192 4.49103 40.4192C2.0107 40.4192 0 38.4085 0 35.9282V14.3713C0 9.86851 2.49818 6.17099 5.78138 3.76331C9.06724 1.35368 13.3891 0 17.9641 0C22.5392 0 26.861 1.35368 30.1469 3.76331C33.4301 6.17099 35.9283 9.86851 35.9283 14.3713V35.9282C35.9283 38.4085 33.9176 40.4192 31.4372 40.4192C28.9569 40.4192 26.9462 38.4085 26.9462 35.9282V14.3713C26.9462 13.4174 26.4283 12.1748 24.8352 11.0065C23.2448 9.84017 20.8301 8.98207 17.9641 8.98207C15.0982 8.98207 12.6835 9.84017 11.093 11.0065Z" fill="white"/>
</svg>
