<svg width="27" height="30" viewBox="0 0 27 30" fill="none" xmlns="http://www.w3.org/2000/svg">
<path fill-rule="evenodd" clip-rule="evenodd" d="M8.23324 8.169C7.05084 9.03609 6.66648 9.95836 6.66648 10.6664V26.6658C6.66648 28.5067 5.17413 29.9991 3.33324 29.9991C1.49234 29.9991 0 28.5067 0 26.6658V10.6664C0 7.32439 1.85414 4.5801 4.29093 2.79312C6.72969 1.0047 9.93739 0 13.333 0C16.7285 0 19.9362 1.0047 22.375 2.79312C24.8118 4.5801 26.6659 7.32439 26.6659 10.6664V26.6658C26.6659 28.5067 25.1736 29.9991 23.3327 29.9991C21.4918 29.9991 19.9994 28.5067 19.9994 26.6658V10.6664C19.9994 9.95836 19.6151 9.03609 18.4327 8.169C17.2522 7.30336 15.4601 6.66648 13.333 6.66648C11.2058 6.66648 9.41367 7.30336 8.23324 8.169Z" fill="white"/>
</svg>
