<svg width="85" height="96" viewBox="0 0 85 96" fill="none" xmlns="http://www.w3.org/2000/svg">
<path fill-rule="evenodd" clip-rule="evenodd" d="M26.0866 25.8826C22.3402 28.6299 21.1224 31.552 21.1224 33.7953V84.4879C21.1224 90.3206 16.394 95.049 10.5612 95.049C4.7284 95.049 0 90.3206 0 84.4879V33.7953C0 23.2066 5.87476 14.5116 13.5956 8.84972C21.3227 3.18328 31.4861 0 42.2448 0C53.0034 0 63.1668 3.18328 70.8939 8.84972C78.6147 14.5116 84.4895 23.2066 84.4895 33.7953V84.4879C84.4895 90.3206 79.7611 95.049 73.9283 95.049C68.0955 95.049 63.3671 90.3206 63.3671 84.4879V33.7953C63.3671 31.552 62.1493 28.6299 58.4029 25.8826C54.6628 23.1399 48.9844 21.122 42.2448 21.122C35.5051 21.122 29.8267 23.1399 26.0866 25.8826Z" fill="#4D4A9D"/>
</svg>
