<svg width="24" height="27" viewBox="0 0 24 27" fill="none" xmlns="http://www.w3.org/2000/svg">
<path fill-rule="evenodd" clip-rule="evenodd" d="M7.39536 7.33766C6.33329 8.11651 5.98804 8.94492 5.98804 9.58086V23.9521C5.98804 25.6056 4.64757 26.9461 2.99402 26.9461C1.34047 26.9461 0 25.6056 0 23.9521V9.58086C0 6.579 1.66545 4.11399 3.85425 2.50887C6.04482 0.90245 8.92608 0 11.9761 0C15.0261 0 17.9073 0.90245 20.0979 2.50887C22.2867 4.11399 23.9522 6.579 23.9522 9.58086V23.9521C23.9522 25.6056 22.6117 26.9461 20.9581 26.9461C19.3046 26.9461 17.9641 25.6056 17.9641 23.9521V9.58086C17.9641 8.94492 17.6189 8.11651 16.5568 7.33766C15.4965 6.56011 13.8867 5.98804 11.9761 5.98804C10.0654 5.98804 8.45565 6.56011 7.39536 7.33766Z" fill="white"/>
</svg>
