<svg width="140" height="160" viewBox="0 0 140 160" fill="none" xmlns="http://www.w3.org/2000/svg">
<path d="M68.2692 148.167C68.2692 148.958 69.1398 149.428 69.7945 148.983C79.2989 142.527 130 106.296 130 68.0826C130 36.0045 103.137 10 70 10C36.8629 10 10 36.0045 10 68.0826C10 99.6003 35.9326 123.844 68.2692 124.731V148.167Z" fill="white"/>
<path fill-rule="evenodd" clip-rule="evenodd" d="M70 20C42.0771 20 20 41.831 20 68.0826C20 93.5674 40.9823 113.979 68.5433 114.735L78.2692 115.001V130.125C83.7767 125.621 90.12 119.988 96.2 113.566C109.738 99.2688 120 83.1163 120 68.0826C120 41.831 97.9229 20 70 20ZM0 68.0826C0 30.178 31.6487 0 70 0C108.351 0 140 30.178 140 68.0826C140 91.2625 124.912 112.332 110.723 127.317C96.1462 142.712 80.4255 153.851 75.4135 157.255C67.9876 162.299 58.2692 156.825 58.2692 148.167V133.828C25.6395 128.646 0 102.297 0 68.0826Z" fill="#4D4A9D"/>
<path d="M55 64C55 72.8366 50.9706 80 46 80C41.0294 80 37 72.8366 37 64C37 55.1634 41.0294 48 46 48C50.9706 48 55 55.1634 55 64Z" fill="#4D4A9D"/>
<path d="M36 78C31.936 78 26 80.0396 26 83.5834C26 87.1272 30.4772 90 36 90C41.5228 90 46 87.1272 46 83.5834C46 80.0396 40.064 78 36 78Z" fill="white"/>
<path d="M102 78C106.064 78 112 80.0396 112 83.5834C112 87.1272 107.523 90 102 90C96.4772 90 92 87.1272 92 83.5834C92 80.0396 97.936 78 102 78Z" fill="white"/>
<path d="M49 55C49 57.7614 47.6569 60 46 60C44.3431 60 43 57.7614 43 55C43 52.2386 44.3431 50 46 50C47.6569 50 49 52.2386 49 55Z" fill="white"/>
<path d="M103 64C103 72.8366 98.9706 80 94 80C89.0294 80 85 72.8366 85 64C85 55.1634 89.0294 48 94 48C98.9706 48 103 55.1634 103 64Z" fill="#4D4A9D"/>
<path d="M97 55C97 57.7614 95.6569 60 94 60C92.3431 60 91 57.7614 91 55C91 52.2386 92.3431 50 94 50C95.6569 50 97 52.2386 97 55Z" fill="white"/>
</svg>
