<svg width="130" height="39" viewBox="0 0 130 39" fill="none" xmlns="http://www.w3.org/2000/svg">
<path fill-rule="evenodd" clip-rule="evenodd" d="M126.663 8.33398C128.504 8.33398 129.997 9.82633 129.997 11.6672L129.997 34.9999C129.997 36.8408 128.504 38.3331 126.663 38.3331C124.822 38.3331 123.33 36.8408 123.33 34.9999L123.33 11.6672C123.33 9.82633 124.822 8.33398 126.663 8.33398Z" fill="white"/>
<path d="M129.997 3.33324C129.997 5.17413 128.504 6.66648 126.663 6.66648C124.822 6.66648 123.33 5.17413 123.33 3.33324C123.33 1.49234 124.822 0 126.663 0C128.504 0 129.997 1.49234 129.997 3.33324Z" fill="white"/>
<path fill-rule="evenodd" clip-rule="evenodd" d="M98.2313 16.835C97.0489 17.7021 96.6645 18.6244 96.6645 19.3324V35.3318C96.6645 37.1727 95.1722 38.6651 93.3313 38.6651C91.4904 38.6651 89.998 37.1727 89.998 35.3318V19.3324C89.998 15.9904 91.8522 13.2461 94.289 11.4591C96.7277 9.67071 99.9354 8.66602 103.331 8.66602C106.727 8.66602 109.934 9.67071 112.373 11.4591C114.81 13.2461 116.664 15.9904 116.664 19.3324V35.3318C116.664 37.1727 115.172 38.6651 113.331 38.6651C111.49 38.6651 109.997 37.1727 109.997 35.3318V19.3324C109.997 18.6244 109.613 17.7021 108.431 16.835C107.25 15.9694 105.458 15.3325 103.331 15.3325C101.204 15.3325 99.4117 15.9694 98.2313 16.835Z" fill="white"/>
<path fill-rule="evenodd" clip-rule="evenodd" d="M44.8993 16.503C43.7169 17.3701 43.3325 18.2923 43.3325 19.0003V34.9999C43.3325 36.8408 41.8402 38.3331 39.9993 38.3331C38.1584 38.3331 36.666 36.8408 36.666 34.9999V19.0003C36.666 15.6584 38.5202 12.9141 40.9569 11.1271C43.3957 9.33868 46.6034 8.33398 49.999 8.33398C53.3945 8.33398 56.6022 9.33868 59.041 11.1271C59.372 11.3699 59.6923 11.6303 59.9987 11.9075C60.305 11.6303 60.6253 11.3699 60.9564 11.1271C63.3951 9.33868 66.6028 8.33398 69.9984 8.33398C73.394 8.33398 76.6017 9.33868 79.0404 11.1271C81.4772 12.9141 83.3313 15.6584 83.3313 19.0003V34.9999C83.3313 36.8408 81.839 38.3331 79.9981 38.3331C78.1572 38.3331 76.6649 36.8408 76.6649 34.9999V19.0003C76.6649 18.2923 76.2805 17.3701 75.0981 16.503C73.9177 15.6373 72.1255 15.0005 69.9984 15.0005C67.8713 15.0005 66.0791 15.6373 64.8987 16.503C63.7163 17.3701 63.3319 18.2923 63.3319 19.0003V34.9999C63.3319 36.8408 61.8396 38.3331 59.9987 38.3331C58.1578 38.3331 56.6654 36.8408 56.6654 34.9999V19.0003C56.6654 18.2923 56.2811 17.3701 55.0987 16.503C53.9183 15.6373 52.1261 15.0005 49.999 15.0005C47.8718 15.0005 46.0797 15.6373 44.8993 16.503Z" fill="white"/>
<path fill-rule="evenodd" clip-rule="evenodd" d="M14.9996 31.9987C19.6018 31.9987 23.3327 28.2678 23.3327 23.6656C23.3327 19.0633 19.6018 15.3325 14.9996 15.3325C10.3973 15.3325 6.66648 19.0633 6.66648 23.6656C6.66648 28.2678 10.3973 31.9987 14.9996 31.9987ZM14.9996 38.6652C23.2836 38.6652 29.9991 31.9496 29.9991 23.6656C29.9991 15.3816 23.2836 8.66602 14.9996 8.66602C6.71554 8.66602 0 15.3816 0 23.6656C0 31.9496 6.71554 38.6652 14.9996 38.6652Z" fill="white"/>
</svg>
