<svg width="503" height="243" viewBox="0 0 503 243" fill="none" xmlns="http://www.w3.org/2000/svg">
<path fill-rule="evenodd" clip-rule="evenodd" d="M461.822 5.46094C465.976 5.46094 469.344 13.6086 469.344 23.6592V105.194L491.037 73.5838C494.595 68.3984 499.217 71.1744 501.36 79.7841C503.503 88.3938 502.356 99.5769 498.798 104.762L475.344 138.939L499.386 181.905C502.727 187.876 503.435 199.271 500.967 207.355C498.499 215.44 493.79 217.152 490.448 211.181L469.344 173.465V196.543C469.344 206.594 465.976 214.741 461.822 214.741C457.668 214.741 454.301 206.594 454.301 196.543V23.6592C454.301 13.6086 457.668 5.46094 461.822 5.46094Z" fill="#FF177B"/>
<path fill-rule="evenodd" clip-rule="evenodd" d="M342.982 168.248C342.982 158.197 346.35 150.049 350.504 150.049C354.658 150.049 358.025 158.197 358.025 168.248C358.025 181.341 355.948 192.941 352.235 201.135C348.605 209.145 343.869 212.92 339.11 212.92C328.953 212.92 319.665 195.632 319.665 168.248L319.665 81.7347L312.144 81.7347C307.99 81.7347 304.622 73.5872 304.622 63.5364C304.622 53.4857 308.007 45.4957 312.144 45.3381L319.665 45.3381L319.665 21.8379C319.665 11.7873 323.562 3.63967 327.716 3.63967C331.87 3.63967 334.708 11.7873 334.708 21.8379L334.708 45.4957C334.708 45.4957 347.119 45.4957 350.88 45.4957C354.641 45.4957 357.993 54.133 358.025 63.694C358.056 72.795 354.641 81.7347 351.256 81.7347L334.669 81.8923C334.669 81.8923 334.63 161.792 334.669 168.248C334.708 174.704 336.926 176.879 339.11 176.523C341.123 176.196 342.982 172.884 342.982 168.248Z" fill="#FF177B"/>
<path fill-rule="evenodd" clip-rule="evenodd" d="M285.818 45.4961C289.972 45.4961 293.34 53.6437 293.34 63.6944L293.34 191.082C293.34 201.133 289.972 209.281 285.818 209.281C281.664 209.281 278.297 201.133 278.297 191.082L278.297 63.6944C278.297 53.6437 281.664 45.4961 285.818 45.4961Z" fill="#FF177B"/>
<path d="M293.34 18.1983C293.34 28.2489 289.972 36.3966 285.818 36.3966C281.664 36.3966 278.297 28.2489 278.297 18.1983C278.297 8.14765 281.664 0 285.818 0C289.972 0 293.34 8.14765 293.34 18.1983Z" fill="#FF177B"/>
<path fill-rule="evenodd" clip-rule="evenodd" d="M221.661 91.9143C218.992 96.6483 218.125 101.684 218.125 105.549V192.9C218.125 202.951 214.758 211.099 210.604 211.099C206.45 211.099 203.082 202.951 203.082 192.9V105.549C203.082 87.303 207.266 72.3201 212.765 62.5639C218.268 52.7997 225.506 47.3145 233.168 47.3145C240.83 47.3145 248.069 52.7997 253.572 62.5639C259.07 72.3201 263.254 87.303 263.254 105.549V192.9C263.254 202.951 259.887 211.099 255.733 211.099C251.579 211.099 248.211 202.951 248.211 192.9V105.549C248.211 101.684 247.344 96.6483 244.676 91.9143C242.012 87.1882 237.968 83.711 233.168 83.711C228.368 83.711 224.324 87.1882 221.661 91.9143Z" fill="#FF177B"/>
<path fill-rule="evenodd" clip-rule="evenodd" d="M101.316 90.0959C98.6477 94.8299 97.7804 99.8652 97.7804 103.731V191.082C97.7804 201.133 94.4129 209.281 90.2588 209.281C86.1048 209.281 82.7373 201.133 82.7373 191.082V103.731C82.7373 85.4846 86.9212 70.5018 92.4199 60.7455C97.923 50.9814 105.161 45.4961 112.823 45.4961C120.486 45.4961 127.724 50.9814 133.227 60.7455C133.974 62.071 134.697 63.4928 135.388 65.0063C136.079 63.4928 136.802 62.071 137.549 60.7455C143.052 50.9814 150.291 45.4961 157.953 45.4961C165.615 45.4961 172.853 50.9814 178.356 60.7455C183.855 70.5018 188.039 85.4846 188.039 103.731V191.082C188.039 201.133 184.671 209.281 180.517 209.281C176.363 209.281 172.996 201.133 172.996 191.082V103.731C172.996 99.8652 172.128 94.8299 169.46 90.0959C166.797 85.3698 162.753 81.8927 157.953 81.8927C153.153 81.8927 149.109 85.3698 146.445 90.0959C143.777 94.8299 142.91 99.8652 142.91 103.731V191.082C142.91 201.133 139.542 209.281 135.388 209.281C131.234 209.281 127.867 201.133 127.867 191.082V103.731C127.867 99.8652 126.999 94.8299 124.331 90.0959C121.667 85.3698 117.623 81.8927 112.823 81.8927C108.024 81.8927 103.979 85.3698 101.316 90.0959Z" fill="#FF177B"/>
<path fill-rule="evenodd" clip-rule="evenodd" d="M33.8469 174.702C44.232 174.702 52.6508 154.333 52.6508 129.207C52.6508 104.08 44.232 83.711 33.8469 83.711C23.4619 83.711 15.0431 104.08 15.0431 129.207C15.0431 154.333 23.4619 174.702 33.8469 174.702ZM33.8469 211.099C52.5401 211.099 67.6939 174.435 67.6939 129.207C67.6939 83.9789 52.5401 47.3145 33.8469 47.3145C15.1538 47.3145 0 83.9789 0 129.207C0 174.435 15.1538 211.099 33.8469 211.099Z" fill="#FF177B"/>
<path fill-rule="evenodd" clip-rule="evenodd" d="M406.163 77.0085C391.462 77.0085 384.05 94.1426 384.05 127.387C384.05 159.726 391.652 177.05 406.163 178.009L412.797 177.107L410.517 205.159C413.417 199.444 416.757 192.295 419.958 184.147C427.085 166.004 429.382 151.433 429.382 127.387C429.382 96.8479 420.865 77.0085 406.163 77.0085ZM369.308 126.429C369.308 78.4895 385.971 40.0352 406.163 40.0352C426.355 40.0352 443.019 78.3299 443.019 126.429C443.019 171.973 436.853 184.243 429.382 203.259C421.707 222.794 411.652 235.266 409.013 239.586C405.104 245.987 399.987 239.04 399.987 228.053L397.686 203.259C380.644 203.259 369.308 171.973 369.308 126.429Z" fill="#FF177B"/>
</svg>
