<svg width="300" height="60" viewBox="0 0 300 60" fill="none" xmlns="http://www.w3.org/2000/svg">
<path fill-rule="evenodd" clip-rule="evenodd" d="M275.749 1.34766C278.229 1.34766 280.24 3.35836 280.24 5.83869V25.9602L293.192 18.1592C295.317 16.8796 298.077 17.5646 299.357 19.6894C300.636 21.8141 299.951 24.5739 297.826 25.8536L283.822 34.2878L298.178 44.8911C300.173 46.3647 300.595 49.1767 299.122 51.1718C297.648 53.1669 294.836 53.5896 292.841 52.116L280.24 42.8082V48.5035C280.24 50.9838 278.229 52.9945 275.749 52.9945C273.269 52.9945 271.258 50.9838 271.258 48.5035V5.83869C271.258 3.35836 273.269 1.34766 275.749 1.34766Z" fill="white"/>
<path fill-rule="evenodd" clip-rule="evenodd" d="M204.791 41.5147C204.791 39.0344 206.802 37.0237 209.282 37.0237C211.763 37.0237 213.773 39.0344 213.773 41.5147C213.773 44.7458 212.533 47.6087 210.316 49.6308C208.149 51.6075 205.321 52.5391 202.479 52.5391C196.414 52.5391 190.869 48.2726 190.869 41.5147L190.869 20.1647L186.378 20.1647C183.898 20.1647 181.887 18.1541 181.887 15.6737C181.887 13.1933 183.908 11.2216 186.378 11.1827L190.869 11.1827L190.869 5.38321C190.869 2.90288 193.195 0.892183 195.676 0.892183C198.156 0.892183 199.851 2.90289 199.851 5.38321L199.851 11.2216C199.851 11.2216 207.261 11.2216 209.507 11.2216C211.753 11.2216 213.754 13.3531 213.773 15.7126C213.792 17.9586 211.752 20.1647 209.731 20.1647L199.828 20.2036C199.828 20.2036 199.804 39.9215 199.828 41.5147C199.851 43.1079 201.175 43.6447 202.479 43.557C203.681 43.4762 204.791 42.6588 204.791 41.5147Z" fill="white"/>
<path fill-rule="evenodd" clip-rule="evenodd" d="M170.663 11.2227C173.143 11.2227 175.154 13.2334 175.154 15.7137L175.154 47.1509C175.154 49.6312 173.143 51.642 170.663 51.642C168.183 51.642 166.172 49.6312 166.172 47.1509L166.172 15.7137C166.172 13.2334 168.183 11.2227 170.663 11.2227Z" fill="white"/>
<path d="M175.154 4.49103C175.154 6.97136 173.143 8.98207 170.663 8.98207C168.183 8.98207 166.172 6.97136 166.172 4.49103C166.172 2.0107 168.183 0 170.663 0C173.143 0 175.154 2.0107 175.154 4.49103Z" fill="white"/>
<path fill-rule="evenodd" clip-rule="evenodd" d="M132.349 22.6901C130.756 23.8584 130.238 25.101 130.238 26.0549V47.6118C130.238 50.0921 128.227 52.1028 125.747 52.1028C123.267 52.1028 121.256 50.0921 121.256 47.6118V26.0549C121.256 21.5521 123.754 17.8546 127.037 15.4469C130.323 13.0373 134.645 11.6836 139.22 11.6836C143.795 11.6836 148.117 13.0373 151.403 15.4469C154.686 17.8546 157.184 21.5521 157.184 26.0549V47.6118C157.184 50.0921 155.173 52.1028 152.693 52.1028C150.213 52.1028 148.202 50.0921 148.202 47.6118V26.0549C148.202 25.101 147.684 23.8584 146.091 22.6901C144.501 21.5238 142.086 20.6657 139.22 20.6657C136.354 20.6657 133.939 21.5238 132.349 22.6901Z" fill="white"/>
<path fill-rule="evenodd" clip-rule="evenodd" d="M60.4973 22.2291C58.9042 23.3974 58.3864 24.64 58.3864 25.594V47.1509C58.3864 49.6312 56.3757 51.642 53.8953 51.642C51.415 51.642 49.4043 49.6312 49.4043 47.1509V25.594C49.4043 21.0912 51.9025 17.3936 55.1857 14.986C58.4715 12.5763 62.7934 11.2227 67.3684 11.2227C71.9434 11.2227 76.2653 12.5763 79.5512 14.986C79.9972 15.3131 80.4288 15.664 80.8415 16.0374C81.2543 15.664 81.6858 15.3131 82.1319 14.986C85.4177 12.5763 89.7396 11.2227 94.3146 11.2227C98.8897 11.2227 103.212 12.5763 106.497 14.986C109.781 17.3936 112.279 21.0912 112.279 25.594V47.1509C112.279 49.6312 110.268 51.642 107.788 51.642C105.307 51.642 103.297 49.6312 103.297 47.1509V25.594C103.297 24.64 102.779 23.3974 101.186 22.2291C99.5953 21.0628 97.1806 20.2047 94.3146 20.2047C91.4487 20.2047 89.034 21.0628 87.4436 22.2291C85.8505 23.3974 85.3326 24.64 85.3326 25.594V47.1509C85.3326 49.6312 83.3219 51.642 80.8415 51.642C78.3612 51.642 76.3505 49.6312 76.3505 47.1509V25.594C76.3505 24.64 75.8326 23.3974 74.2395 22.2291C72.6491 21.0628 70.2344 20.2047 67.3684 20.2047C64.5025 20.2047 62.0878 21.0628 60.4973 22.2291Z" fill="white"/>
<path fill-rule="evenodd" clip-rule="evenodd" d="M20.2097 43.1208C26.4105 43.1208 31.4372 38.0941 31.4372 31.8932C31.4372 25.6924 26.4105 20.6657 20.2097 20.6657C14.0088 20.6657 8.98207 25.6924 8.98207 31.8932C8.98207 38.0941 14.0088 43.1208 20.2097 43.1208ZM20.2097 52.1029C31.3711 52.1029 40.4193 43.0547 40.4193 31.8932C40.4193 20.7318 31.3711 11.6836 20.2097 11.6836C9.04817 11.6836 0 20.7318 0 31.8932C0 43.0547 9.04817 52.1029 20.2097 52.1029Z" fill="white"/>
<path fill-rule="evenodd" clip-rule="evenodd" d="M242.518 19.0131C233.74 19.0131 229.314 23.2415 229.314 31.4456C229.314 39.4264 233.853 43.7017 242.518 43.9383L246.479 43.7158L245.117 50.6385C246.849 49.2282 248.843 47.4639 250.754 45.453C255.01 40.9756 256.382 37.3798 256.382 31.4456C256.382 23.9091 251.296 19.0131 242.518 19.0131ZM220.512 31.2094C220.512 19.3786 230.461 9.88867 242.518 9.88867C254.574 9.88867 264.524 19.3392 264.524 31.2094C264.524 42.4487 260.842 45.4769 256.382 50.1696C251.799 54.9906 245.795 58.0684 244.22 59.1346C241.885 60.7142 238.83 58.9998 238.83 56.2884L237.456 50.1696C227.28 50.1696 220.512 42.4487 220.512 31.2094Z" fill="white"/>
</svg>
