<svg width="668" height="133" viewBox="0 0 668 133" fill="none" xmlns="http://www.w3.org/2000/svg">
<path fill-rule="evenodd" clip-rule="evenodd" d="M614 3C619.523 3 624 7.47715 624 13V57.8037L652.841 40.4337C657.572 37.5843 663.717 39.1097 666.566 43.8407C669.416 48.5718 667.89 54.7169 663.159 57.5663L631.977 76.3465L663.941 99.9563C668.384 103.238 669.325 109.499 666.044 113.941C662.762 118.384 656.501 119.325 652.059 116.044L624 95.3185V108C624 113.523 619.523 118 614 118C608.477 118 604 113.523 604 108V13C604 7.47715 608.477 3 614 3Z" fill="#FF177B"/>
<path fill-rule="evenodd" clip-rule="evenodd" d="M456 92.4525C456 86.9297 460.477 82.4525 466 82.4525C471.523 82.4525 476 86.9297 476 92.4525C476 99.6471 473.238 106.022 468.302 110.524C463.476 114.926 457.179 117 450.851 117C437.347 117 425 107.5 425 92.4525L425 44.9134L415 44.9134C409.477 44.9134 405 40.4363 405 34.9134C405 29.3905 409.5 25 415 24.9134L425 24.9134L425 12C425 6.47715 430.18 2 435.703 2C441.226 2 445 6.47716 445 12L445 25C445 25 461.5 25 466.5 25C471.501 25 475.957 29.7462 476 35C476.04 40.001 471.5 44.9134 467 44.9134L444.948 45C444.948 45 444.895 88.905 444.948 92.4525C445 96 447.948 97.1952 450.851 97C453.528 96.82 456 95 456 92.4525Z" fill="#FF177B"/>
<path fill-rule="evenodd" clip-rule="evenodd" d="M380 25C385.523 25 390 29.4772 390 35L390 105C390 110.523 385.523 115 380 115C374.477 115 370 110.523 370 105L370 35C370 29.4772 374.477 25 380 25Z" fill="#FF177B"/>
<path d="M390 10C390 15.5228 385.523 20 380 20C374.477 20 370 15.5228 370 10C370 4.47715 374.477 0 380 0C385.523 0 390 4.47715 390 10Z" fill="#FF177B"/>
<path fill-rule="evenodd" clip-rule="evenodd" d="M294.7 50.5077C291.153 53.1091 290 55.8759 290 58V106C290 111.523 285.523 116 280 116C274.477 116 270 111.523 270 106V58C270 47.9738 275.563 39.7407 282.873 34.3796C290.19 29.0142 299.813 26 310 26C320.187 26 329.81 29.0142 337.127 34.3796C344.437 39.7407 350 47.9738 350 58V106C350 111.523 345.523 116 340 116C334.477 116 330 111.523 330 106V58C330 55.8759 328.847 53.1091 325.3 50.5077C321.758 47.9107 316.382 46 310 46C303.618 46 298.242 47.9107 294.7 50.5077Z" fill="#FF177B"/>
<path fill-rule="evenodd" clip-rule="evenodd" d="M134.7 49.5077C131.153 52.1091 130 54.8759 130 57V105C130 110.523 125.523 115 120 115C114.477 115 110 110.523 110 105V57C110 46.9738 115.563 38.7407 122.873 33.3796C130.19 28.0142 139.813 25 150 25C160.187 25 169.81 28.0142 177.127 33.3796C178.12 34.1079 179.081 34.8893 180 35.7209C180.919 34.8893 181.88 34.1079 182.873 33.3796C190.19 28.0142 199.813 25 210 25C220.187 25 229.81 28.0142 237.127 33.3796C244.437 38.7407 250 46.9738 250 57V105C250 110.523 245.523 115 240 115C234.477 115 230 110.523 230 105V57C230 54.8759 228.847 52.1091 225.3 49.5077C221.758 46.9107 216.382 45 210 45C203.618 45 198.242 46.9107 194.7 49.5077C191.153 52.1091 190 54.8759 190 57V105C190 110.523 185.523 115 180 115C174.477 115 170 110.523 170 105V57C170 54.8759 168.847 52.1091 165.3 49.5077C161.758 46.9107 156.382 45 150 45C143.618 45 138.242 46.9107 134.7 49.5077Z" fill="#FF177B"/>
<path fill-rule="evenodd" clip-rule="evenodd" d="M45 96C58.8071 96 70 84.8071 70 71C70 57.1929 58.8071 46 45 46C31.1929 46 20 57.1929 20 71C20 84.8071 31.1929 96 45 96ZM45 116C69.8528 116 90 95.8528 90 71C90 46.1472 69.8528 26 45 26C20.1472 26 0 46.1472 0 71C0 95.8528 20.1472 116 45 116Z" fill="#FF177B"/>
<path fill-rule="evenodd" clip-rule="evenodd" d="M540 42.317C520.454 42.317 510.6 51.7321 510.6 70C510.6 87.7705 520.707 97.29 540 97.817L548.82 97.3214L545.788 112.736C549.644 109.596 554.084 105.667 558.34 101.19C567.816 91.22 570.87 83.2133 570.87 70C570.87 53.2188 559.546 42.317 540 42.317ZM491 69.4739C491 43.1308 513.154 22 540 22C566.846 22 589 43.0431 589 69.4739C589 94.5 580.802 101.243 570.87 111.692C560.666 122.427 547.298 129.28 543.789 131.654C538.591 135.171 531.788 131.354 531.788 125.316L528.73 111.692C506.072 111.692 491 94.5 491 69.4739Z" fill="#FF177B"/>
</svg>
