<svg width="412" height="123" viewBox="0 0 412 123" fill="none" xmlns="http://www.w3.org/2000/svg">
<path fill-rule="evenodd" clip-rule="evenodd" d="M401.327 26.4082C407.16 26.4082 411.888 31.1365 411.888 36.9692L411.888 110.896C411.888 116.729 407.16 121.457 401.327 121.457C395.494 121.457 390.766 116.729 390.766 110.896L390.766 36.9692C390.766 31.1365 395.494 26.4082 401.327 26.4082Z" fill="#4D4A9D"/>
<path d="M411.888 10.561C411.888 16.3937 407.16 21.1221 401.327 21.1221C395.494 21.1221 390.766 16.3937 390.766 10.561C390.766 4.72833 395.494 0 401.327 0C407.16 0 411.888 4.72833 411.888 10.561Z" fill="#4D4A9D"/>
<path fill-rule="evenodd" clip-rule="evenodd" d="M311.243 53.3416C307.496 56.0889 306.279 59.011 306.279 61.2543V111.947C306.279 117.78 301.55 122.508 295.717 122.508C289.885 122.508 285.156 117.78 285.156 111.947V61.2543C285.156 50.6656 291.031 41.9706 298.752 36.3087C306.479 30.6423 316.642 27.459 327.401 27.459C338.16 27.459 348.323 30.6423 356.05 36.3087C363.771 41.9706 369.646 50.6656 369.646 61.2543V111.947C369.646 117.78 364.917 122.508 359.085 122.508C353.252 122.508 348.523 117.78 348.523 111.947V61.2543C348.523 59.011 347.306 56.0889 343.559 53.3416C339.819 50.5989 334.141 48.581 327.401 48.581C320.661 48.581 314.983 50.5989 311.243 53.3416Z" fill="#4D4A9D"/>
<path fill-rule="evenodd" clip-rule="evenodd" d="M142.262 52.2908C138.516 55.0381 137.298 57.9603 137.298 60.2035V110.896C137.298 116.729 132.57 121.457 126.737 121.457C120.904 121.457 116.176 116.729 116.176 110.896V60.2035C116.176 49.6148 122.051 40.9198 129.771 35.2579C137.498 29.5915 147.662 26.4082 158.421 26.4082C169.179 26.4082 179.343 29.5915 187.07 35.2579C188.119 36.0271 189.133 36.8523 190.104 37.7306C191.075 36.8523 192.09 36.0271 193.138 35.2579C200.866 29.5915 211.029 26.4082 221.788 26.4082C232.546 26.4082 242.71 29.5915 250.437 35.2579C258.158 40.9198 264.032 49.6148 264.032 60.2035V110.896C264.032 116.729 259.304 121.457 253.471 121.457C247.638 121.457 242.91 116.729 242.91 110.896V60.2035C242.91 57.9603 241.692 55.0381 237.946 52.2908C234.206 49.5481 228.527 47.5303 221.788 47.5303C215.048 47.5303 209.37 49.5481 205.629 52.2908C201.883 55.0381 200.665 57.9603 200.665 60.2035V110.896C200.665 116.729 195.937 121.457 190.104 121.457C184.271 121.457 179.543 116.729 179.543 110.896V60.2035C179.543 57.9603 178.325 55.0381 174.579 52.2908C170.839 49.5481 165.16 47.5303 158.421 47.5303C151.681 47.5303 146.002 49.5481 142.262 52.2908Z" fill="#4D4A9D"/>
<path fill-rule="evenodd" clip-rule="evenodd" d="M47.5253 101.386C62.1073 101.386 73.9283 89.5653 73.9283 74.9836C73.9283 60.4019 62.1073 48.581 47.5253 48.581C32.9434 48.581 21.1224 60.4019 21.1224 74.9836C21.1224 89.5653 32.9434 101.386 47.5253 101.386ZM47.5253 122.508C73.7729 122.508 95.0507 101.231 95.0507 74.9836C95.0507 48.7365 73.7729 27.459 47.5253 27.459C21.2778 27.459 0 48.7365 0 74.9836C0 101.231 21.2778 122.508 47.5253 122.508Z" fill="#4D4A9D"/>
</svg>
