<svg width="74" height="202" viewBox="0 0 74 202" fill="none" xmlns="http://www.w3.org/2000/svg">
<path fill-rule="evenodd" clip-rule="evenodd" d="M36.8556 36.9734C22.1539 36.9734 14.7422 54.1074 14.7422 87.3517C14.7422 119.691 22.3445 137.015 36.8556 137.974L43.4896 137.072L41.2094 165.124C44.1091 159.409 47.4489 152.26 50.6501 144.112C57.7778 125.968 60.0745 111.398 60.0745 87.3517C60.0745 56.8128 51.5572 36.9734 36.8556 36.9734ZM0 86.3943C0 38.4544 16.6633 0 36.8556 0C57.0478 0 73.7111 38.2947 73.7111 86.3943C73.7111 131.938 67.5451 144.208 60.0745 163.224C52.3999 182.759 42.3447 195.231 39.7058 199.551C35.796 205.952 30.6792 199.005 30.6792 188.018L28.3788 163.224C11.3361 163.224 0 131.938 0 86.3943Z" fill="#FF177B"/>
</svg>
