<svg width="45" height="84" viewBox="0 0 45 84" fill="none" xmlns="http://www.w3.org/2000/svg">
<path fill-rule="evenodd" clip-rule="evenodd" d="M22.3727 15.2815C13.4483 15.2815 8.94908 22.3632 8.94908 36.1034C8.94908 49.4696 13.5639 56.6297 22.3727 57.026L26.3998 56.6533L25.0156 68.2474C26.7759 65.8854 28.8033 62.9306 30.7465 59.5629C35.0733 52.0641 36.4675 46.0418 36.4675 36.1034C36.4675 23.4813 31.2971 15.2815 22.3727 15.2815ZM0 35.7077C0 15.8936 10.1152 0 22.3727 0C34.6302 0 44.7454 15.8276 44.7454 35.7077C44.7454 54.5312 41.0024 59.6028 36.4675 67.4622C31.8087 75.5363 25.7048 80.6909 24.1029 82.4765C21.7295 85.1221 18.6234 82.2508 18.6234 77.7098L17.227 67.4622C6.88145 67.4622 0 54.5312 0 35.7077Z" fill="#FF177B"/>
</svg>
