<svg width="98" height="111" viewBox="0 0 98 111" fill="none" xmlns="http://www.w3.org/2000/svg">
<path fill-rule="evenodd" clip-rule="evenodd" d="M49 20.317C29.454 20.317 19.6 29.7321 19.6 48C19.6 65.7705 29.7073 75.29 49 75.817L57.82 75.3214L54.7885 90.736C58.6437 87.5957 63.084 83.6672 67.34 79.1897C76.8165 69.22 79.87 61.2133 79.87 48C79.87 31.2188 68.546 20.317 49 20.317ZM0 47.4739C1.08484e-10 21.1308 22.1541 0 49 0C75.8459 0 98 21.0431 98 47.4739C98 72.5 89.8022 79.2428 79.87 89.692C69.6664 100.427 56.2979 107.28 52.7895 109.654C47.5913 113.171 40.7885 109.354 40.7885 103.316L37.73 89.692C15.0715 89.692 -1.03061e-10 72.5 0 47.4739Z" fill="#FF177B"/>
</svg>
