<svg width="71" height="115" viewBox="0 0 71 115" fill="none" xmlns="http://www.w3.org/2000/svg">
<path fill-rule="evenodd" clip-rule="evenodd" d="M50.9997 90.4525C50.9997 84.9297 55.4768 80.4525 60.9997 80.4525C66.5225 80.4525 70.9997 84.9297 70.9997 90.4525C70.9997 97.6471 68.238 104.022 63.3016 108.524C58.4759 112.926 52.1791 115 45.8512 115C32.3474 115 19.9997 105.5 19.9997 90.4525L19.9997 42.9134L9.99997 42.9134C4.47712 42.9134 -0.000259638 38.4363 -0.000260205 32.9134C-0.000260773 27.3905 4.49998 23 9.99998 22.9134L19.9997 22.9134L19.9997 10C19.9997 4.47715 25.1798 3.40778e-06 30.7027 2.99703e-06C36.2255 2.58628e-06 39.9997 4.47716 39.9997 10L39.9997 23C39.9997 23 56.5 23 61.5003 23C66.5007 23 70.9571 27.7462 70.9997 33C71.0403 38.001 66.5 42.9134 61.9998 42.9134L39.9475 43C39.9475 43 39.8953 86.905 39.9475 90.4525C39.9997 94 42.9475 95.1952 45.8512 95C48.5277 94.82 50.9997 93 50.9997 90.4525Z" fill="white"/>
</svg>
