<svg width="32" height="52" viewBox="0 0 32 52" fill="none" xmlns="http://www.w3.org/2000/svg">
<path fill-rule="evenodd" clip-rule="evenodd" d="M22.9045 40.6221C22.9045 38.1418 24.9152 36.1311 27.3955 36.1311C29.8759 36.1311 31.8866 38.1418 31.8866 40.6221C31.8866 43.8533 30.6463 46.7161 28.4294 48.7382C26.2621 50.7149 23.4342 51.6465 20.5923 51.6465C14.5277 51.6465 8.98232 47.38 8.98232 40.6221L8.98232 19.2722L4.4914 19.2722C2.01107 19.2722 0.000259681 17.2615 0.000259426 14.7811C0.000259171 12.3008 2.02133 10.329 4.4914 10.2901L8.98232 10.2901L8.98232 4.49064C8.98232 2.01031 11.3087 -0.000395198 13.7891 -0.000395383C16.2694 -0.000395567 17.9644 2.01031 17.9644 4.49064L17.9644 10.329C17.9644 10.329 25.3747 10.329 27.6204 10.329C29.8661 10.329 31.8674 12.4605 31.8866 14.82C31.9048 17.066 29.8657 19.2722 27.8447 19.2722L17.9409 19.311C17.9409 19.311 17.9175 39.0289 17.9409 40.6221C17.9644 42.2153 19.2883 42.7521 20.5923 42.6644C21.7944 42.5836 22.9045 41.7662 22.9045 40.6221Z" fill="white"/>
</svg>
