<svg width="24" height="39" viewBox="0 0 24 39" fill="none" xmlns="http://www.w3.org/2000/svg">
<path fill-rule="evenodd" clip-rule="evenodd" d="M16.9994 30.1498C16.9994 28.3089 18.4918 26.8165 20.3327 26.8165C22.1736 26.8165 23.6659 28.3089 23.6659 30.1498C23.6659 32.5479 22.7454 34.6727 21.1 36.1735C19.4914 37.6406 17.3926 38.332 15.2833 38.332C10.7822 38.332 6.66641 35.1655 6.66641 30.1498L6.66641 14.3039L3.33326 14.3039C1.49236 14.3039 -5.9843e-05 12.8115 -6.00322e-05 10.9706C-6.02214e-05 9.1297 1.49998 7.66624 3.33326 7.63738L6.66641 7.63738L6.66641 3.33303C6.66641 1.49214 8.39306 -0.000204858 10.234 -0.000204995C12.0749 -0.000205132 13.3329 1.49214 13.3329 3.33303L13.3329 7.66624C13.3329 7.66624 18.8328 7.66624 20.4995 7.66624C22.1663 7.66624 23.6517 9.24826 23.6659 10.9995C23.6794 12.6664 22.166 14.3039 20.666 14.3039L13.3155 14.3327C13.3155 14.3327 13.2981 28.9673 13.3155 30.1498C13.3329 31.3322 14.3155 31.7306 15.2833 31.6656C16.1755 31.6056 16.9994 30.9989 16.9994 30.1498Z" fill="white"/>
</svg>
