<svg width="75" height="122" viewBox="0 0 75 122" fill="none" xmlns="http://www.w3.org/2000/svg">
<path fill-rule="evenodd" clip-rule="evenodd" d="M53.8617 95.5265C53.8617 89.6938 58.5901 84.9655 64.4228 84.9655C70.2556 84.9655 74.984 89.6938 74.984 95.5265C74.984 103.125 72.0674 109.857 66.854 114.612C61.7574 119.261 55.1072 121.451 48.4242 121.451C34.1627 121.451 21.122 111.418 21.122 95.5265L21.122 45.3204L10.5611 45.3204C4.72832 45.3204 -0.000321115 40.5921 -0.000321714 34.7593C-0.000322313 28.9266 4.75245 24.2898 10.5611 24.1983L21.122 24.1983L21.122 10.5604C21.122 4.72773 26.5928 -0.000599123 32.4256 -0.000599557C38.2584 -0.000599991 42.2444 4.72773 42.2444 10.5604L42.2444 24.2898C42.2444 24.2898 59.6706 24.2898 64.9516 24.2897C70.2326 24.2897 74.9391 29.3022 74.9841 34.8508C75.0269 40.1324 70.2318 45.3204 65.4791 45.3204L42.1893 45.4118C42.1893 45.4118 42.1341 91.78 42.1893 95.5265C42.2444 99.273 45.3576 100.535 48.4242 100.329C51.251 100.139 53.8617 98.2169 53.8617 95.5265Z" fill="#4D4A9D"/>
</svg>
