<svg width="22" height="35" viewBox="0 0 22 35" fill="none" xmlns="http://www.w3.org/2000/svg">
<path fill-rule="evenodd" clip-rule="evenodd" d="M15.2697 27.0821C15.2697 25.4285 16.6101 24.0881 18.2637 24.0881C19.9172 24.0881 21.2577 25.4285 21.2577 27.0821C21.2577 29.2362 20.4309 31.1447 18.9529 32.4928C17.5081 33.8106 15.6228 34.4316 13.7282 34.4316C9.68516 34.4316 5.98823 31.5873 5.98823 27.0821L5.98823 12.8488L2.99428 12.8488C1.34073 12.8488 0.000192194 11.5083 0.000192024 9.85476C0.000191854 8.20119 1.34757 6.88667 2.99428 6.86074L5.98823 6.86074L5.98823 2.99444C5.98823 1.34089 7.53916 0.000420637 9.19271 0.000420514C10.8463 0.000420391 11.9763 1.34089 11.9763 2.99444L11.9763 6.88667C11.9763 6.88667 16.9165 6.88667 18.4136 6.88667C19.9107 6.88667 21.245 8.30769 21.2577 9.88068C21.2699 11.378 19.9105 12.8488 18.5631 12.8488L11.9606 12.8747C11.9606 12.8747 11.945 26.02 11.9606 27.0821C11.9763 28.1442 12.8588 28.5021 13.7282 28.4436C14.5296 28.3897 15.2697 27.8448 15.2697 27.0821Z" fill="white"/>
</svg>
