<svg width="45" height="50" viewBox="0 0 45 50" fill="none" xmlns="http://www.w3.org/2000/svg">
<path fill-rule="evenodd" clip-rule="evenodd" d="M22.0061 9.12442C13.2279 9.12442 8.80243 13.3528 8.80243 21.557C8.80243 29.5378 13.3417 33.813 22.0061 34.0497L25.9672 33.8271L24.6057 40.7498C26.3371 39.3395 28.3313 37.5752 30.2426 35.5644C34.4985 31.0869 35.8699 27.4911 35.8699 21.557C35.8699 14.0204 30.7842 9.12442 22.0061 9.12442ZM0 21.3207C0 9.48991 9.94948 0 22.0061 0C34.0627 0 44.0121 9.45051 44.0121 21.3207C44.0121 32.56 40.3305 35.5882 35.8699 40.281C31.2874 45.102 25.2836 48.1797 23.7079 49.2459C21.3734 50.8255 18.3182 49.1111 18.3182 46.3997L16.9447 40.281C6.76868 40.281 0 32.56 0 21.3207Z" fill="white"/>
</svg>
