<svg width="30" height="34" viewBox="0 0 30 34" fill="none" xmlns="http://www.w3.org/2000/svg">
<path fill-rule="evenodd" clip-rule="evenodd" d="M14.6707 6.08294C8.81859 6.08294 5.86828 8.90187 5.86828 14.3713C5.86828 19.6918 8.89443 22.542 14.6707 22.6998L17.3114 22.5514L16.4038 27.1665C17.558 26.2263 18.8875 25.0501 20.1617 23.7096C22.999 20.7246 23.9132 18.3274 23.9132 14.3713C23.9132 9.34696 20.5228 6.08294 14.6707 6.08294ZM0 14.2138C0 6.3266 6.63298 0 14.6707 0C22.7084 0 29.3414 6.30033 29.3414 14.2138C29.3414 21.7066 26.887 23.7255 23.9132 26.854C20.8583 30.0679 16.8557 32.1198 15.8053 32.8306C14.2489 33.8837 12.2121 32.7407 12.2121 30.9331L11.2964 26.854C4.51245 26.854 0 21.7066 0 14.2138Z" fill="white"/>
</svg>
