<svg width="33" height="37" viewBox="0 0 33 37" fill="none" xmlns="http://www.w3.org/2000/svg">
<path fill-rule="evenodd" clip-rule="evenodd" d="M16.3329 6.77213C9.81772 6.77213 6.53315 9.91043 6.53315 15.9995C6.53315 21.9229 9.90215 25.0959 16.3329 25.2716L19.2728 25.1064L18.2623 30.2445C19.5473 29.1977 21.0274 27.8883 22.446 26.3958C25.6048 23.0727 26.6226 20.4039 26.6226 15.9995C26.6226 10.406 22.848 6.77213 16.3329 6.77213ZM0 15.8242C0 7.04339 7.38448 0 16.3329 0C25.2812 0 32.6657 7.01415 32.6657 15.8242C32.6657 24.166 29.9332 26.4135 26.6226 29.8965C23.2215 33.4746 18.7654 35.7589 17.596 36.5502C15.8633 37.7226 13.5958 36.4502 13.5958 34.4378L12.5763 29.8965C5.0237 29.8965 0 24.166 0 15.8242Z" fill="white"/>
</svg>
