<svg width="30" height="87" viewBox="0 0 30 87" fill="none" xmlns="http://www.w3.org/2000/svg">
<path fill-rule="evenodd" clip-rule="evenodd" d="M4.56586 0C7.08751 0 9.13172 3.36751 9.13172 7.52154V41.2208L22.3 28.1559C24.4601 26.0127 27.2659 27.16 28.5669 30.7185C29.8679 34.277 29.1714 38.8991 27.0113 41.0423L12.774 55.1678L27.3684 72.9261C29.3967 75.3942 29.8265 80.1036 28.3283 83.445C26.8301 86.7864 23.9712 87.4943 21.9429 85.0263L9.13172 69.4378V78.9762C9.13172 83.1302 7.08751 86.4977 4.56586 86.4977C2.0442 86.4977 0 83.1302 0 78.9762V7.52154C0 3.36751 2.0442 0 4.56586 0Z" fill="#FF177B"/>
</svg>
