<svg width="49" height="87" viewBox="0 0 49 87" fill="none" xmlns="http://www.w3.org/2000/svg">
<path fill-rule="evenodd" clip-rule="evenodd" d="M7.52154 0C11.6756 0 15.0431 3.36751 15.0431 7.52154V41.2208L36.7358 28.1559C40.2942 26.0127 44.9163 27.16 47.0595 30.7185C49.2027 34.277 48.0554 38.8991 44.4969 41.0423L21.0432 55.1678L45.0851 72.9261C48.4265 75.3942 49.1344 80.1036 46.6664 83.445C44.1983 86.7864 39.4889 87.4943 36.1475 85.0263L15.0431 69.4378V78.9762C15.0431 83.1302 11.6756 86.4977 7.52154 86.4977C3.36751 86.4977 0 83.1302 0 78.9762V7.52154C0 3.36751 3.36751 0 7.52154 0Z" fill="white"/>
</svg>
