<svg width="49" height="210" viewBox="0 0 49 210" fill="none" xmlns="http://www.w3.org/2000/svg">
<path fill-rule="evenodd" clip-rule="evenodd" d="M7.52154 0C11.6756 0 15.0431 8.14765 15.0431 18.1983V99.7332L36.7358 68.1228C40.2942 62.9375 44.9163 65.7134 47.0595 74.3231C49.2027 82.9328 48.0554 94.116 44.4969 99.3014L21.0432 133.478L45.0851 176.444C48.4265 182.415 49.1344 193.81 46.6664 201.894C44.1983 209.979 39.4889 211.691 36.1475 205.72L15.0431 168.004V191.082C15.0431 201.133 11.6756 209.28 7.52154 209.28C3.36751 209.28 0 201.133 0 191.082V18.1983C0 8.14765 3.36751 0 7.52154 0Z" fill="#FF177B"/>
</svg>
