<svg width="364" height="409" viewBox="0 0 364 409" fill="none" xmlns="http://www.w3.org/2000/svg">
<path fill-rule="evenodd" clip-rule="evenodd" d="M181.985 74.6947C109.392 74.6947 72.7941 109.309 72.7941 176.471C72.7941 241.803 110.333 276.801 181.985 278.739L214.743 276.917L203.484 333.588C217.802 322.043 234.293 307.6 250.1 291.139C285.295 254.485 296.636 225.049 296.636 176.471C296.636 114.775 254.579 74.6947 181.985 74.6947ZM0 174.536C4.02909e-10 77.6867 82.2799 0 181.985 0C281.691 0 363.971 77.3642 363.971 174.536C363.971 266.544 333.524 291.334 296.636 329.75C258.74 369.216 209.089 394.411 196.059 403.139C176.754 416.07 151.488 402.036 151.488 379.84L140.129 329.75C55.9755 329.75 -3.82765e-10 266.544 0 174.536Z" fill="white"/>
<path d="M147.06 167.279C147.06 184.538 141.298 198.529 134.192 198.529C127.085 198.529 121.324 184.538 121.324 167.279C121.324 150.02 127.085 136.029 134.192 136.029C141.298 136.029 147.06 150.02 147.06 167.279Z" fill="white"/>
<path d="M246.325 167.279C246.325 184.538 240.564 198.529 233.457 198.529C226.351 198.529 220.59 184.538 220.59 167.279C220.59 150.02 226.351 136.029 233.457 136.029C240.564 136.029 246.325 150.02 246.325 167.279Z" fill="white"/>
</svg>
