<svg width="140" height="160" viewBox="0 0 140 160" fill="none" xmlns="http://www.w3.org/2000/svg">
<path d="M68.2692 148.167C68.2692 148.958 69.1398 149.428 69.7945 148.983C79.2989 142.527 130 106.296 130 68.0826C130 36.0045 103.137 10 70 10C36.8629 10 10 36.0045 10 68.0826C10 99.6003 35.9326 123.844 68.2692 124.731V148.167Z" fill="white"/>
<path d="M68.2692 124.731H78.2692V115.001L68.5433 114.735L68.2692 124.731ZM69.7945 148.983L75.4135 157.255L69.7945 148.983ZM120 68.0826C120 83.1163 109.738 99.2688 96.2 113.566C83.0499 127.455 68.6678 137.659 64.1755 140.711L75.4135 157.255C80.4255 153.851 96.1462 142.712 110.723 127.317C124.912 112.332 140 91.2625 140 68.0826H120ZM70 20C97.9229 20 120 41.831 120 68.0826H140C140 30.178 108.351 0 70 0V20ZM20 68.0826C20 41.831 42.0771 20 70 20V0C31.6487 0 0 30.178 0 68.0826H20ZM68.5433 114.735C40.9823 113.979 20 93.5674 20 68.0826H0C0 105.633 30.8828 133.71 67.9951 134.727L68.5433 114.735ZM58.2692 124.731V148.167H78.2692V124.731H58.2692ZM64.1755 140.711C70.2919 136.556 78.2692 141.092 78.2692 148.167H58.2692C58.2692 156.825 67.9876 162.299 75.4135 157.255L64.1755 140.711Z" fill="#4D4A9D"/>
<path d="M54.5 67.5781C54.5 67.0185 54.4269 66.7235 54.3525 66.585C54.3206 66.5255 54.2978 66.5124 54.2949 66.5107C54.2919 66.509 54.2753 66.4987 54.2246 66.5C54.0993 66.5032 53.8838 66.57 53.5508 66.752C53.2305 66.927 52.8594 67.1753 52.4355 67.4736C51.6034 68.0593 50.5836 68.8264 49.5059 69.4365C48.4283 70.0465 47.2262 70.54 46 70.54C44.7738 70.54 43.5717 70.0465 42.4941 69.4365C41.4164 68.8264 40.3966 68.0593 39.5645 67.4736C39.1406 67.1753 38.7695 66.927 38.4492 66.752C38.1162 66.57 37.9007 66.5032 37.7754 66.5C37.7247 66.4987 37.7081 66.509 37.7051 66.5107C37.7022 66.5124 37.6794 66.5255 37.6475 66.585C37.5731 66.7235 37.5 67.0185 37.5 67.5781C37.5002 71.9226 41.2739 75.5 46 75.5C50.7261 75.5 54.4998 71.9225 54.5 67.5781Z" fill="#4D4A9D" stroke="#4D4A9D"/>
<path d="M102.5 67.5781C102.5 67.0185 102.427 66.7235 102.353 66.585C102.321 66.5255 102.298 66.5124 102.295 66.5107C102.292 66.509 102.275 66.4987 102.225 66.5C102.099 66.5032 101.884 66.57 101.551 66.752C101.231 66.927 100.859 67.1753 100.436 67.4736C99.6034 68.0593 98.5836 68.8264 97.5059 69.4365C96.4283 70.0465 95.2262 70.54 94 70.54C92.7738 70.54 91.5717 70.0465 90.4941 69.4365C89.4164 68.8264 88.3966 68.0593 87.5645 67.4736C87.1406 67.1753 86.7695 66.927 86.4492 66.752C86.1162 66.57 85.9007 66.5032 85.7754 66.5C85.7247 66.4987 85.7081 66.509 85.7051 66.5107C85.7022 66.5124 85.6794 66.5255 85.6475 66.585C85.5731 66.7235 85.5 67.0185 85.5 67.5781C85.5002 71.9226 89.2739 75.5 94 75.5C98.7261 75.5 102.5 71.9225 102.5 67.5781Z" fill="#4D4A9D" stroke="#4D4A9D"/>
<path d="M38.7991 77.3637C34.8736 76.3118 28.612 76.7456 27.6948 80.1686C26.7776 83.5917 30.3586 87.5254 35.6933 88.9548C41.0279 90.3842 46.0961 88.768 47.0133 85.345C47.9305 81.9219 42.7246 78.4155 38.7991 77.3637Z" fill="white"/>
<path d="M100.401 77.3637C104.326 76.3118 110.588 76.7456 111.505 80.1686C112.422 83.5917 108.841 87.5254 103.506 88.9548C98.1718 90.3842 93.1036 88.768 92.1864 85.345C91.2692 81.9219 96.4751 78.4155 100.401 77.3637Z" fill="white"/>
</svg>
