<svg width="54" height="87" viewBox="0 0 54 87" fill="none" xmlns="http://www.w3.org/2000/svg">
<path fill-rule="evenodd" clip-rule="evenodd" d="M38.3597 68.0346C38.3597 63.8805 41.7273 60.513 45.8813 60.513C50.0353 60.513 53.4028 63.8805 53.4028 68.0346C53.4028 73.446 51.3256 78.2407 47.6127 81.6272C43.983 84.9379 39.2468 86.498 34.4873 86.498C24.3304 86.498 15.043 79.3526 15.043 68.0346L15.043 32.2778L7.52165 32.2778C3.36762 32.2778 -5.93236e-05 28.9104 -5.97505e-05 24.7563C-6.01774e-05 20.6022 3.38481 17.2999 7.52166 17.2347L15.043 17.2347L15.043 7.52186C15.043 3.36782 18.9392 0.000322998 23.0933 0.000322689C27.2473 0.00032238 30.0861 3.36783 30.0861 7.52186L30.0861 17.2999C30.0861 17.2999 42.4968 17.2999 46.2579 17.2999C50.0189 17.2999 53.3708 20.8697 53.4029 24.8214C53.4334 28.5829 50.0184 32.2778 46.6336 32.2778L30.0468 32.3429C30.0468 32.3429 30.0075 65.3663 30.0468 68.0346C30.0861 70.7028 32.3033 71.6018 34.4873 71.455C36.5005 71.3196 38.3597 69.9507 38.3597 68.0346Z" fill="#4D4A9D"/>
</svg>
