<svg width="80" height="90" viewBox="0 0 80 90" fill="none" xmlns="http://www.w3.org/2000/svg">
<path fill-rule="evenodd" clip-rule="evenodd" d="M24.7004 24.5077C21.1531 27.1091 20 29.8759 20 32V79.9998C20 85.5226 15.5228 89.9998 10 89.9998C4.47715 89.9998 0 85.5226 0 79.9998V32C0 21.9738 5.56259 13.7407 12.8732 8.3796C20.1896 3.01417 29.813 0 40 0C50.187 0 59.8103 3.01417 67.1268 8.3796C74.4374 13.7407 80 21.9738 80 32V79.9998C80 85.5226 75.5229 89.9998 70 89.9998C64.4772 89.9998 60 85.5226 60 79.9998V32C60 29.8759 58.8469 27.1091 55.2996 24.5077C51.7582 21.9107 46.3816 20 40 20C33.6184 20 28.2418 21.9107 24.7004 24.5077Z" fill="#FF177B"/>
</svg>
