<svg width="71" height="115" viewBox="0 0 71 115" fill="none" xmlns="http://www.w3.org/2000/svg">
<path fill-rule="evenodd" clip-rule="evenodd" d="M50.9999 90.4525C50.9999 84.9297 55.4771 80.4525 61 80.4525C66.5228 80.4525 70.9999 84.9297 70.9999 90.4525C71 97.6471 68.2383 104.022 63.3019 108.524C58.4761 112.926 52.1794 115 45.8514 115C32.3477 115 20 105.5 20 90.4525L20 42.9134L10.0002 42.9134C4.47739 42.9134 1.50203e-05 38.4363 1.44528e-05 32.9134C1.38852e-05 27.3905 4.50025 23 10.0002 22.9134L20 22.9134L20 10C20 4.47715 25.1801 3.40778e-06 30.703 2.99703e-06C36.2258 2.58628e-06 40 4.47716 40 10L40 23C40 23 56.5002 23 61.5006 23C66.501 23 70.9574 27.7462 71 33C71.0406 38.001 66.5002 42.9134 62.0001 42.9134L39.9478 43C39.9478 43 39.8956 86.905 39.9478 90.4525C40 94 42.9478 95.1952 45.8514 95C48.528 94.82 50.9999 93 50.9999 90.4525Z" fill="white"/>
</svg>
