<svg width="106" height="68" viewBox="0 0 106 68" fill="none" xmlns="http://www.w3.org/2000/svg">
<path fill-rule="evenodd" clip-rule="evenodd" d="M18.5785 18.4336C15.9104 20.3902 15.0431 22.4713 15.0431 24.0689V60.1723C15.0431 64.3264 11.6756 67.6939 7.52154 67.6939C3.36751 67.6939 0 64.3264 0 60.1723V24.0689C0 16.5277 4.18393 10.3351 9.6826 6.30275C15.1857 2.26712 22.424 0 30.0862 0C37.7483 0 44.9866 2.26712 50.4897 6.30275C51.2367 6.85056 51.9595 7.43824 52.6508 8.06376C53.3421 7.43824 54.0648 6.85056 54.8118 6.30275C60.315 2.26712 67.5532 0 75.2154 0C82.8776 0 90.1158 2.26712 95.619 6.30275C101.118 10.3351 105.302 16.5277 105.302 24.0689V60.1723C105.302 64.3264 101.934 67.6939 97.78 67.6939C93.626 67.6939 90.2585 64.3264 90.2585 60.1723V24.0689C90.2585 22.4713 89.3912 20.3902 86.723 18.4336C84.0594 16.4802 80.0153 15.0431 75.2154 15.0431C70.4155 15.0431 66.3714 16.4802 63.7078 18.4336C61.0397 20.3902 60.1723 22.4713 60.1723 24.0689V60.1723C60.1723 64.3264 56.8048 67.6939 52.6508 67.6939C48.4968 67.6939 45.1292 64.3264 45.1292 60.1723V24.0689C45.1292 22.4713 44.2619 20.3902 41.5938 18.4336C38.9301 16.4802 34.8861 15.0431 30.0862 15.0431C25.2863 15.0431 21.2422 16.4802 18.5785 18.4336Z" fill="#FF177B"/>
</svg>
