<svg width="140" height="160" viewBox="0 0 140 160" fill="none" xmlns="http://www.w3.org/2000/svg">
<path d="M68.2692 148.167C68.2692 148.958 69.1398 149.428 69.7945 148.983C79.2989 142.527 130 106.296 130 68.0826C130 36.0045 103.137 10 70 10C36.8629 10 10 36.0045 10 68.0826C10 99.6003 35.9326 123.844 68.2692 124.731V148.167Z" fill="white"/>
<path d="M68.2692 124.731H78.2692V115.001L68.5433 114.735L68.2692 124.731ZM69.7945 148.983L75.4135 157.255L69.7945 148.983ZM120 68.0826C120 83.1163 109.738 99.2688 96.2 113.566C83.0499 127.455 68.6678 137.659 64.1755 140.711L75.4135 157.255C80.4255 153.851 96.1462 142.712 110.723 127.317C124.912 112.332 140 91.2625 140 68.0826H120ZM70 20C97.9229 20 120 41.831 120 68.0826H140C140 30.178 108.351 0 70 0V20ZM20 68.0826C20 41.831 42.0771 20 70 20V0C31.6487 0 0 30.178 0 68.0826H20ZM68.5433 114.735C40.9823 113.979 20 93.5674 20 68.0826H0C0 105.633 30.8828 133.71 67.9951 134.727L68.5433 114.735ZM58.2692 124.731V148.167H78.2692V124.731H58.2692ZM64.1755 140.711C70.2919 136.556 78.2692 141.092 78.2692 148.167H58.2692C58.2692 156.825 67.9876 162.299 75.4135 157.255L64.1755 140.711Z" fill="#4D4A9D"/>
<path d="M40.374 48.6475C41.4725 48.2704 43.1581 48.5639 45.7324 50.1982C48.3359 51.8511 50.1736 53.0862 51.4736 54.1406C52.7718 55.1935 53.4994 56.0393 53.9189 56.9004C54.337 57.7583 54.4734 58.6813 54.4961 59.9443C54.5075 60.5772 54.4911 61.2822 54.4707 62.1006C54.4504 62.916 54.4268 63.8374 54.4268 64.8877C54.4268 68.987 53.4442 72.6742 51.8818 75.3193C50.3127 77.9757 48.2165 79.5 46 79.5C43.7835 79.5 41.6873 77.9757 40.1182 75.3193C38.5558 72.6742 37.5732 68.987 37.5732 64.8877C37.5732 62.7536 37.4805 60.4229 37.5039 58.0811C37.5271 55.7629 37.6668 53.5662 38.1152 51.8486C38.5683 50.1134 39.2952 49.0178 40.374 48.6475Z" fill="#4D4A9D" stroke="#4D4A9D"/>
<path d="M44.6621 52.0127C44.8147 51.9517 45.1213 51.9367 45.6875 52.3896C46.3209 52.8963 46.8072 53.2755 47.1953 53.6133C47.5804 53.9484 47.8389 54.2179 48.0215 54.4912C48.3712 55.0146 48.5 55.634 48.5 56.999C48.5 58.3047 48.1812 59.4626 47.6924 60.2773C47.1976 61.102 46.5838 61.499 46 61.499C45.4162 61.499 44.8024 61.102 44.3076 60.2773C43.8188 59.4626 43.5 58.3047 43.5 56.999C43.5 55.6246 43.6275 53.9539 44.0303 52.8906C44.2366 52.346 44.4669 52.0908 44.6621 52.0127Z" fill="white" stroke="#4D4A9D"/>
<path d="M99.7744 48.6475C98.6759 48.2704 96.9903 48.5639 94.416 50.1982C91.8126 51.8511 89.9749 53.0862 88.6748 54.1406C87.3766 55.1935 86.6491 56.0393 86.2295 56.9004C85.8115 57.7583 85.6751 58.6813 85.6523 59.9443C85.641 60.5772 85.6573 61.2822 85.6777 62.1006C85.6981 62.916 85.7217 63.8374 85.7217 64.8877C85.7217 68.987 86.7042 72.6742 88.2666 75.3193C89.8357 77.9757 91.932 79.5 94.1484 79.5C96.3649 79.5 98.4612 77.9757 100.03 75.3193C101.593 72.6742 102.575 68.987 102.575 64.8877C102.575 62.7536 102.668 60.4229 102.645 58.0811C102.621 55.7629 102.482 53.5662 102.033 51.8486C101.58 50.1134 100.853 49.0178 99.7744 48.6475Z" fill="#4D4A9D" stroke="#4D4A9D"/>
<path d="M95.3379 51.5322C95.1853 51.4712 94.8787 51.4562 94.3125 51.9092C93.6791 52.4159 93.1928 52.7951 92.8047 53.1328C92.4196 53.4679 92.1611 53.7375 91.9785 54.0107C91.6288 54.5341 91.5 55.1535 91.5 56.5186C91.5 57.8242 91.8188 58.9821 92.3076 59.7969C92.8024 60.6216 93.4162 61.0186 94 61.0186C94.5838 61.0186 95.1976 60.6216 95.6924 59.7969C96.1812 58.9821 96.5 57.8242 96.5 56.5186C96.5 55.1441 96.3725 53.4734 95.9697 52.4102C95.7634 51.8655 95.5331 51.6103 95.3379 51.5322Z" fill="white" stroke="#4D4A9D"/>
<path d="M38.7991 77.3637C34.8736 76.3118 28.612 76.7456 27.6948 80.1686C26.7776 83.5917 30.3586 87.5254 35.6933 88.9548C41.0279 90.3842 46.0961 88.768 47.0133 85.345C47.9305 81.9219 42.7246 78.4155 38.7991 77.3637Z" fill="white"/>
<path d="M100.401 77.3637C104.326 76.3118 110.588 76.7456 111.505 80.1686C112.422 83.5917 108.841 87.5254 103.506 88.9548C98.1718 90.3842 93.1036 88.768 92.1864 85.345C91.2692 81.9219 96.4751 78.4155 100.401 77.3637Z" fill="white"/>
</svg>
