<svg width="6" height="35" viewBox="0 0 6 35" fill="none" xmlns="http://www.w3.org/2000/svg">
<path fill-rule="evenodd" clip-rule="evenodd" d="M2.99402 7.48242C4.64757 7.48242 5.98804 8.82289 5.98804 10.4764L5.98804 31.4346C5.98804 33.0881 4.64758 34.4286 2.99402 34.4286C1.34047 34.4286 3.71033e-06 33.0881 3.58136e-06 31.4346L2.3352e-07 10.4764C1.04551e-07 8.82289 1.34047 7.48242 2.99402 7.48242Z" fill="white"/>
<path d="M5.98804 2.99402C5.98804 4.64757 4.64757 5.98804 2.99402 5.98804C1.34047 5.98804 0 4.64757 0 2.99402C0 1.34047 1.34047 0 2.99402 0C4.64757 0 5.98804 1.34047 5.98804 2.99402Z" fill="white"/>
</svg>
