<svg width="22" height="39" viewBox="0 0 22 39" fill="none" xmlns="http://www.w3.org/2000/svg">
<path fill-rule="evenodd" clip-rule="evenodd" d="M3.33324 0C5.17413 0 6.66648 1.49234 6.66648 3.33324V18.2674L16.2798 12.4775C17.8568 11.5278 19.9051 12.0362 20.8548 13.6132C21.8046 15.1902 21.2962 17.2385 19.7192 18.1883L9.32546 24.4481L19.9799 32.3179C21.4606 33.4116 21.7744 35.4986 20.6806 36.9794C19.5869 38.4601 17.4998 38.7739 16.0191 37.6801L6.66648 30.772V34.999C6.66648 36.8399 5.17413 38.3322 3.33324 38.3322C1.49234 38.3322 0 36.8399 0 34.999V3.33324C0 1.49234 1.49234 0 3.33324 0Z" fill="white"/>
</svg>
