<svg width="47" height="30" viewBox="0 0 47 30" fill="none" xmlns="http://www.w3.org/2000/svg">
<path fill-rule="evenodd" clip-rule="evenodd" d="M8.23324 8.169C7.05084 9.03609 6.66648 9.95836 6.66648 10.6664V26.6659C6.66648 28.5068 5.17413 29.9991 3.33324 29.9991C1.49234 29.9991 0 28.5068 0 26.6659V10.6664C0 7.32439 1.85414 4.5801 4.29093 2.79312C6.72969 1.0047 9.93739 0 13.333 0C16.7285 0 19.9362 1.0047 22.375 2.79312C22.706 3.03589 23.0263 3.29632 23.3327 3.57353C23.639 3.29632 23.9593 3.03589 24.2904 2.79312C26.7291 1.0047 29.9368 0 33.3324 0C36.7279 0 39.9356 1.0047 42.3744 2.79312C44.8112 4.5801 46.6653 7.32439 46.6653 10.6664V26.6659C46.6653 28.5068 45.173 29.9991 43.3321 29.9991C41.4912 29.9991 39.9989 28.5068 39.9989 26.6659V10.6664C39.9989 9.95836 39.6145 9.03609 38.4321 8.169C37.2517 7.30336 35.4595 6.66648 33.3324 6.66648C31.2053 6.66648 29.4131 7.30336 28.2327 8.169C27.0503 9.03609 26.6659 9.95836 26.6659 10.6664V26.6659C26.6659 28.5068 25.1736 29.9991 23.3327 29.9991C21.4918 29.9991 19.9994 28.5068 19.9994 26.6659V10.6664C19.9994 9.95836 19.6151 9.03609 18.4327 8.169C17.2522 7.30336 15.4601 6.66648 13.333 6.66648C11.2058 6.66648 9.41367 7.30336 8.23324 8.169Z" fill="white"/>
</svg>
