<svg width="148" height="96" viewBox="0 0 148 96" fill="none" xmlns="http://www.w3.org/2000/svg">
<path fill-rule="evenodd" clip-rule="evenodd" d="M26.0866 25.8826C22.3402 28.6299 21.1224 31.5521 21.1224 33.7953V84.4882C21.1224 90.3209 16.394 95.0492 10.5612 95.0492C4.7284 95.0492 0 90.3209 0 84.4882V33.7953C0 23.2066 5.87476 14.5116 13.5956 8.84972C21.3227 3.18328 31.4861 0 42.2447 0C53.0034 0 63.1668 3.18328 70.8939 8.84972C71.9428 9.6189 72.9576 10.4441 73.9283 11.3224C74.899 10.4441 75.9138 9.6189 76.9627 8.84972C84.6898 3.18328 94.8532 0 105.612 0C116.371 0 126.534 3.18328 134.261 8.84972C141.982 14.5116 147.857 23.2066 147.857 33.7953V84.4882C147.857 90.3209 143.128 95.0492 137.295 95.0492C131.463 95.0492 126.734 90.3209 126.734 84.4882V33.7953C126.734 31.5521 125.516 28.6299 121.77 25.8826C118.03 23.1399 112.352 21.1221 105.612 21.1221C98.8722 21.1221 93.1938 23.1399 89.4537 25.8826C85.7073 28.6299 84.4895 31.5521 84.4895 33.7953V84.4882C84.4895 90.3209 79.7611 95.0492 73.9283 95.0492C68.0955 95.0492 63.3671 90.3209 63.3671 84.4882V33.7953C63.3671 31.5521 62.1493 28.6299 58.4029 25.8826C54.6628 23.1399 48.9844 21.1221 42.2447 21.1221C35.5051 21.1221 29.8267 23.1399 26.0866 25.8826Z" fill="#4D4A9D"/>
</svg>
