<svg width="42" height="27" viewBox="0 0 42 27" fill="none" xmlns="http://www.w3.org/2000/svg">
<path fill-rule="evenodd" clip-rule="evenodd" d="M7.39536 7.33765C6.33329 8.1165 5.98804 8.94491 5.98804 9.58086V23.9522C5.98804 25.6057 4.64757 26.9462 2.99402 26.9462C1.34047 26.9462 0 25.6057 0 23.9522V9.58086C0 6.579 1.66545 4.11399 3.85425 2.50887C6.04482 0.90245 8.92608 0 11.9761 0C15.0261 0 17.9073 0.90245 20.0979 2.50887C20.3953 2.72693 20.683 2.96086 20.9581 3.20985C21.2333 2.96086 21.521 2.72693 21.8184 2.50887C24.0089 0.90245 26.8902 0 29.9402 0C32.9902 0 35.8715 0.90245 38.062 2.50887C40.2508 4.11399 41.9163 6.579 41.9163 9.58086V23.9522C41.9163 25.6057 40.5758 26.9462 38.9223 26.9462C37.2687 26.9462 35.9282 25.6057 35.9282 23.9522V9.58086C35.9282 8.94491 35.583 8.1165 34.5209 7.33765C33.4606 6.5601 31.8509 5.98804 29.9402 5.98804C28.0296 5.98804 26.4198 6.5601 25.3595 7.33765C24.2974 8.1165 23.9522 8.94491 23.9522 9.58086V23.9522C23.9522 25.6057 22.6117 26.9462 20.9581 26.9462C19.3046 26.9462 17.9641 25.6057 17.9641 23.9522V9.58086C17.9641 8.94491 17.6189 8.1165 16.5568 7.33765C15.4965 6.5601 13.8867 5.98804 11.9761 5.98804C10.0654 5.98804 8.45566 6.5601 7.39536 7.33765Z" fill="white"/>
</svg>
