<svg width="305" height="101" viewBox="0 0 305 101" fill="none" xmlns="http://www.w3.org/2000/svg">
<path fill-rule="evenodd" clip-rule="evenodd" d="M280.344 2.25781C282.865 2.25781 284.91 5.62532 284.91 9.77935V43.4786L298.078 30.4137C300.238 28.2705 303.044 29.4179 304.345 32.9763C305.646 36.5348 304.949 41.1569 302.789 43.3001L288.552 57.4257L303.146 75.1839C305.175 77.652 305.604 82.3614 304.106 85.7028C302.608 89.0442 299.749 89.7521 297.721 87.2841L284.91 71.6956V81.234C284.91 85.388 282.865 88.7555 280.344 88.7555C277.822 88.7555 275.778 85.388 275.778 81.234V9.77935C275.778 5.62532 277.822 2.25781 280.344 2.25781Z" fill="#FF177B"/>
<path fill-rule="evenodd" clip-rule="evenodd" d="M208.203 69.5385C208.203 65.3844 210.247 62.0169 212.769 62.0169C215.291 62.0169 217.335 65.3844 217.335 69.5385C217.335 74.9499 216.074 79.7446 213.82 83.1311C211.617 86.4418 208.742 88.002 205.852 88.002C199.687 88.002 194.049 80.8565 194.049 69.5385L194.049 33.7817L189.483 33.7817C186.962 33.7817 184.917 30.4143 184.917 26.2602C184.917 22.1061 186.972 18.8038 189.483 18.7386L194.049 18.7386L194.049 9.02577C194.049 4.87173 196.414 1.50423 198.936 1.50423C201.457 1.50423 203.181 4.87174 203.181 9.02577L203.181 18.8038C203.181 18.8038 210.714 18.8038 212.998 18.8038C215.281 18.8038 217.315 22.3736 217.335 26.3253C217.353 30.0868 215.28 33.7817 213.226 33.7817L203.157 33.8469C203.157 33.8469 203.133 66.8702 203.157 69.5385C203.181 72.2067 204.527 73.1057 205.852 72.9589C207.074 72.8235 208.203 71.4546 208.203 69.5385Z" fill="#FF177B"/>
<path fill-rule="evenodd" clip-rule="evenodd" d="M173.502 18.8047C176.024 18.8047 178.068 22.1722 178.068 26.3262L178.068 78.977C178.068 83.131 176.024 86.4986 173.502 86.4986C170.981 86.4986 168.937 83.131 168.937 78.977L168.937 26.3262C168.937 22.1722 170.981 18.8047 173.502 18.8047Z" fill="#FF177B"/>
<path d="M178.068 7.52154C178.068 11.6756 176.024 15.0431 173.502 15.0431C170.981 15.0431 168.937 11.6756 168.937 7.52154C168.937 3.36751 170.981 0 173.502 0C176.024 0 178.068 3.36751 178.068 7.52154Z" fill="#FF177B"/>
<path fill-rule="evenodd" clip-rule="evenodd" d="M134.556 37.9883C132.937 39.9449 132.41 42.026 132.41 43.6236V79.7268C132.41 83.8809 130.366 87.2484 127.844 87.2484C125.323 87.2484 123.278 83.8809 123.278 79.7268V43.6236C123.278 36.0824 125.818 29.8898 129.156 25.8574C132.497 21.8218 136.891 19.5547 141.542 19.5547C146.193 19.5547 150.587 21.8218 153.927 25.8574C157.265 29.8898 159.805 36.0824 159.805 43.6236V79.7268C159.805 83.8809 157.761 87.2484 155.239 87.2484C152.718 87.2484 150.673 83.8809 150.673 79.7268V43.6236C150.673 42.026 150.147 39.9449 148.527 37.9883C146.91 36.0349 144.455 34.5978 141.542 34.5978C138.628 34.5978 136.173 36.0349 134.556 37.9883Z" fill="#FF177B"/>
<path fill-rule="evenodd" clip-rule="evenodd" d="M61.5025 37.2383C59.8828 39.1949 59.3563 41.276 59.3563 42.8736V78.977C59.3563 83.1311 57.3121 86.4986 54.7905 86.4986C52.2688 86.4986 50.2246 83.1311 50.2246 78.977V42.8736C50.2246 35.3324 52.7644 29.1398 56.1023 25.1074C59.4429 21.0718 63.8368 18.8047 68.488 18.8047C73.1393 18.8047 77.5332 21.0718 80.8738 25.1074C81.3272 25.6553 81.766 26.2429 82.1856 26.8684C82.6053 26.2429 83.044 25.6553 83.4975 25.1074C86.8381 21.0718 91.232 18.8047 95.8832 18.8047C100.534 18.8047 104.928 21.0718 108.269 25.1074C111.607 29.1398 114.147 35.3324 114.147 42.8736V78.977C114.147 83.1311 112.102 86.4986 109.581 86.4986C107.059 86.4986 105.015 83.1311 105.015 78.977V42.8736C105.015 41.276 104.488 39.1949 102.869 37.2383C101.252 35.2849 98.7969 33.8478 95.8832 33.8478C92.9695 33.8478 90.5146 35.2849 88.8976 37.2383C87.278 39.1949 86.7515 41.276 86.7515 42.8736V78.977C86.7515 83.1311 84.7073 86.4986 82.1856 86.4986C79.664 86.4986 77.6198 83.1311 77.6198 78.977V42.8736C77.6198 41.276 77.0933 39.1949 75.4736 37.2383C73.8567 35.2849 71.4018 33.8478 68.488 33.8478C65.5743 33.8478 63.1194 35.2849 61.5025 37.2383Z" fill="#FF177B"/>
<path fill-rule="evenodd" clip-rule="evenodd" d="M20.5464 72.2055C26.8505 72.2055 31.961 63.7867 31.961 53.4016C31.961 43.0165 26.8505 34.5978 20.5464 34.5978C14.2422 34.5978 9.13172 43.0165 9.13172 53.4016C9.13172 63.7867 14.2422 72.2055 20.5464 72.2055ZM20.5464 87.2486C31.8938 87.2486 41.0927 72.0948 41.0927 53.4016C41.0927 34.7085 31.8938 19.5547 20.5464 19.5547C9.19892 19.5547 0 34.7085 0 53.4016C0 72.0948 9.19892 87.2486 20.5464 87.2486Z" fill="#FF177B"/>
<path fill-rule="evenodd" clip-rule="evenodd" d="M246.556 31.8284C237.632 31.8284 233.133 38.91 233.133 52.6503C233.133 66.0164 237.748 73.1765 246.556 73.5729L250.583 73.2002L249.199 84.7943C250.959 82.4323 252.987 79.4775 254.93 76.1097C259.257 68.611 260.651 62.5887 260.651 52.6503C260.651 40.0282 255.481 31.8284 246.556 31.8284ZM224.184 52.2546C224.184 32.4405 234.299 16.5469 246.556 16.5469C258.814 16.5469 268.929 32.3745 268.929 52.2546C268.929 71.078 265.186 76.1497 260.651 84.0091C255.992 92.0832 249.888 97.2378 248.287 99.0234C245.913 101.669 242.807 98.7977 242.807 94.2567L241.411 84.0091C231.065 84.0091 224.184 71.078 224.184 52.2546Z" fill="#FF177B"/>
</svg>
