<svg width="200" height="40" viewBox="0 0 200 40" fill="none" xmlns="http://www.w3.org/2000/svg">
<path fill-rule="evenodd" clip-rule="evenodd" d="M183.832 0.898438C185.485 0.898438 186.826 2.23891 186.826 3.89246V17.3068L195.461 12.1062C196.877 11.253 198.717 11.7097 199.57 13.1262C200.423 14.5427 199.967 16.3826 198.55 17.2357L189.214 22.8585L198.784 29.9274C200.115 30.9098 200.396 32.7844 199.414 34.1145C198.431 35.4446 196.557 35.7264 195.227 34.7439L186.826 28.5388V32.3356C186.826 33.9892 185.485 35.3297 183.832 35.3297C182.178 35.3297 180.838 33.9892 180.838 32.3356V3.89246C180.838 2.23891 182.178 0.898438 183.832 0.898438Z" fill="white"/>
<path fill-rule="evenodd" clip-rule="evenodd" d="M136.527 27.6758C136.527 26.0223 137.868 24.6818 139.522 24.6818C141.175 24.6818 142.516 26.0223 142.516 27.6758C142.516 29.8299 141.689 31.7385 140.211 33.0865C138.766 34.4043 136.881 35.0254 134.986 35.0254C130.943 35.0254 127.246 32.1811 127.246 27.6758L127.246 13.4425L124.252 13.4425C122.599 13.4425 121.258 12.1021 121.258 10.4485C121.258 8.79494 122.605 7.48042 124.252 7.45449L127.246 7.45449L127.246 3.58819C127.246 1.93464 128.797 0.594171 130.451 0.594171C132.104 0.59417 133.234 1.93464 133.234 3.58819L133.234 7.48042C133.234 7.48042 138.174 7.48042 139.671 7.48042C141.169 7.48042 142.503 8.90144 142.516 10.4744C142.528 11.9717 141.168 13.4425 139.821 13.4425L133.218 13.4685C133.218 13.4685 133.203 26.6137 133.218 27.6758C133.234 28.738 134.117 29.0958 134.986 29.0374C135.787 28.9835 136.527 28.4385 136.527 27.6758Z" fill="white"/>
<path fill-rule="evenodd" clip-rule="evenodd" d="M113.775 7.48242C115.429 7.48242 116.769 8.82289 116.769 10.4764L116.769 31.4346C116.769 33.0881 115.429 34.4286 113.775 34.4286C112.122 34.4286 110.781 33.0881 110.781 31.4346L110.781 10.4764C110.781 8.82289 112.122 7.48242 113.775 7.48242Z" fill="white"/>
<path d="M116.769 2.99402C116.769 4.64757 115.429 5.98804 113.775 5.98804C112.122 5.98804 110.781 4.64757 110.781 2.99402C110.781 1.34047 112.122 0 113.775 0C115.429 0 116.769 1.34047 116.769 2.99402Z" fill="white"/>
<path fill-rule="evenodd" clip-rule="evenodd" d="M88.2333 15.1267C87.1712 15.9056 86.8259 16.734 86.8259 17.3699V31.7412C86.8259 33.3947 85.4855 34.7352 83.8319 34.7352C82.1784 34.7352 80.8379 33.3947 80.8379 31.7412V17.3699C80.8379 14.3681 82.5033 11.9031 84.6921 10.2979C86.8827 8.69151 89.764 7.78906 92.814 7.78906C95.864 7.78906 98.7452 8.69151 100.936 10.2979C103.125 11.9031 104.79 14.3681 104.79 17.3699V31.7412C104.79 33.3947 103.45 34.7352 101.796 34.7352C100.142 34.7352 98.802 33.3947 98.802 31.7412V17.3699C98.802 16.734 98.4568 15.9056 97.3947 15.1267C96.3344 14.3492 94.7246 13.7771 92.814 13.7771C90.9033 13.7771 89.2935 14.3492 88.2333 15.1267Z" fill="white"/>
<path fill-rule="evenodd" clip-rule="evenodd" d="M40.3309 14.8201C39.2688 15.5989 38.9236 16.4273 38.9236 17.0633V31.4346C38.9236 33.0881 37.5831 34.4286 35.9296 34.4286C34.276 34.4286 32.9355 33.0881 32.9355 31.4346V17.0633C32.9355 14.0614 34.601 11.5964 36.7898 9.99129C38.9804 8.38487 41.8616 7.48242 44.9116 7.48242C47.9616 7.48242 50.8429 8.38487 53.0335 9.99129C53.3308 10.2094 53.6185 10.4433 53.8937 10.6923C54.1689 10.4433 54.4566 10.2094 54.7539 9.99129C56.9445 8.38487 59.8257 7.48242 62.8758 7.48242C65.9258 7.48242 68.807 8.38487 70.9976 9.99129C73.1864 11.5964 74.8518 14.0614 74.8518 17.0633V31.4346C74.8518 33.0881 73.5114 34.4286 71.8578 34.4286C70.2043 34.4286 68.8638 33.0881 68.8638 31.4346V17.0633C68.8638 16.4273 68.5185 15.5989 67.4565 14.8201C66.3962 14.0425 64.7864 13.4705 62.8758 13.4705C60.9651 13.4705 59.3553 14.0425 58.295 14.8201C57.233 15.5989 56.8877 16.4273 56.8877 17.0633V31.4346C56.8877 33.0881 55.5472 34.4286 53.8937 34.4286C52.2401 34.4286 50.8997 33.0881 50.8997 31.4346V17.0633C50.8997 16.4273 50.5544 15.5989 49.4924 14.8201C48.4321 14.0425 46.8223 13.4705 44.9116 13.4705C43.001 13.4705 41.3912 14.0425 40.3309 14.8201Z" fill="white"/>
<path fill-rule="evenodd" clip-rule="evenodd" d="M13.4731 28.7472C17.607 28.7472 20.9581 25.396 20.9581 21.2621C20.9581 17.1283 17.607 13.7771 13.4731 13.7771C9.33921 13.7771 5.98804 17.1283 5.98804 21.2621C5.98804 25.396 9.33921 28.7472 13.4731 28.7472ZM13.4731 34.7352C20.9141 34.7352 26.9462 28.7031 26.9462 21.2621C26.9462 13.8212 20.9141 7.78906 13.4731 7.78906C6.03211 7.78906 0 13.8212 0 21.2621C0 28.7031 6.03211 34.7352 13.4731 34.7352Z" fill="white"/>
<path fill-rule="evenodd" clip-rule="evenodd" d="M161.679 12.6767C155.826 12.6767 152.876 15.4956 152.876 20.965C152.876 26.2856 155.902 29.1357 161.679 29.2935L164.319 29.1451L163.412 33.7603C164.566 32.8201 165.895 31.6439 167.17 30.3033C170.007 27.3184 170.921 24.9211 170.921 20.965C170.921 15.9407 167.531 12.6767 161.679 12.6767ZM147.008 20.8075C147.008 12.9203 153.641 6.59375 161.679 6.59375C169.716 6.59375 176.349 12.8941 176.349 20.8075C176.349 28.3004 173.895 30.3192 170.921 33.4477C167.866 36.6617 163.864 38.7135 162.813 39.4243C161.257 40.4774 159.22 39.3345 159.22 37.5269L158.304 33.4477C151.52 33.4477 147.008 28.3004 147.008 20.8075Z" fill="white"/>
</svg>
