<svg width="503" height="101" viewBox="0 0 503 101" fill="none" xmlns="http://www.w3.org/2000/svg">
<path fill-rule="evenodd" clip-rule="evenodd" d="M461.823 2.25586C465.977 2.25586 469.344 5.62337 469.344 9.7774V43.4767L491.037 30.4118C494.596 28.2686 499.218 29.4159 501.361 32.9744C503.504 36.5329 502.357 41.155 498.798 43.2982L475.344 57.4237L499.386 75.182C502.728 77.65 503.436 82.3595 500.968 85.7009C498.5 89.0422 493.79 89.7502 490.449 87.2821L469.344 71.6936V81.232C469.344 85.3861 465.977 88.7536 461.823 88.7536C457.669 88.7536 454.301 85.3861 454.301 81.232V9.7774C454.301 5.62337 457.669 2.25586 461.823 2.25586Z" fill="#FF8743"/>
<path fill-rule="evenodd" clip-rule="evenodd" d="M342.982 69.5385C342.982 65.3844 346.35 62.0169 350.504 62.0169C354.658 62.0169 358.025 65.3844 358.025 69.5385C358.025 74.9499 355.948 79.7446 352.235 83.1311C348.605 86.4418 343.869 88.002 339.11 88.002C328.953 88.002 319.665 80.8565 319.665 69.5385L319.665 33.7817L312.144 33.7817C307.99 33.7817 304.622 30.4143 304.622 26.2602C304.622 22.1061 308.007 18.8038 312.144 18.7386L319.665 18.7386L319.665 9.02577C319.665 4.87173 323.562 1.50423 327.716 1.50423C331.87 1.50423 334.708 4.87174 334.708 9.02577L334.708 18.8038C334.708 18.8038 347.119 18.8038 350.88 18.8038C354.641 18.8038 357.993 22.3736 358.025 26.3253C358.056 30.0868 354.641 33.7817 351.256 33.7817L334.669 33.8469C334.669 33.8469 334.63 66.8702 334.669 69.5385C334.708 72.2067 336.926 73.1057 339.11 72.9589C341.123 72.8235 342.982 71.4546 342.982 69.5385Z" fill="#FF8743"/>
<path fill-rule="evenodd" clip-rule="evenodd" d="M285.818 18.8047C289.972 18.8047 293.34 22.1722 293.34 26.3262L293.34 78.977C293.34 83.131 289.972 86.4986 285.818 86.4986C281.664 86.4986 278.297 83.131 278.297 78.977L278.297 26.3262C278.297 22.1722 281.664 18.8047 285.818 18.8047Z" fill="#FF8743"/>
<path d="M293.34 7.52154C293.34 11.6756 289.972 15.0431 285.818 15.0431C281.664 15.0431 278.297 11.6756 278.297 7.52154C278.297 3.36751 281.664 0 285.818 0C289.972 0 293.34 3.36751 293.34 7.52154Z" fill="#FF8743"/>
<path fill-rule="evenodd" clip-rule="evenodd" d="M221.66 37.9902C218.992 39.9468 218.125 42.028 218.125 43.6256V79.7288C218.125 83.8828 214.757 87.2503 210.603 87.2503C206.449 87.2503 203.082 83.8828 203.082 79.7288V43.6256C203.082 36.0843 207.265 29.8918 212.764 25.8594C218.267 21.8238 225.506 19.5566 233.168 19.5566C240.83 19.5566 248.068 21.8238 253.571 25.8594C259.07 29.8918 263.254 36.0843 263.254 43.6256V79.7288C263.254 83.8828 259.886 87.2503 255.732 87.2503C251.578 87.2503 248.211 83.8828 248.211 79.7288V43.6256C248.211 42.028 247.343 39.9468 244.675 37.9902C242.012 36.0369 237.968 34.5997 233.168 34.5997C228.368 34.5997 224.324 36.0369 221.66 37.9902Z" fill="#FF8743"/>
<path fill-rule="evenodd" clip-rule="evenodd" d="M101.316 37.2383C98.6475 39.1949 97.7801 41.276 97.7801 42.8736V78.977C97.7801 83.1311 94.4126 86.4986 90.2586 86.4986C86.1046 86.4986 82.7371 83.1311 82.7371 78.977V42.8736C82.7371 35.3324 86.921 29.1398 92.4197 25.1074C97.9228 21.0718 105.161 18.8047 112.823 18.8047C120.485 18.8047 127.724 21.0718 133.227 25.1074C133.974 25.6553 134.697 26.2429 135.388 26.8684C136.079 26.2429 136.802 25.6553 137.549 25.1074C143.052 21.0718 150.29 18.8047 157.952 18.8047C165.615 18.8047 172.853 21.0718 178.356 25.1074C183.855 29.1398 188.039 35.3324 188.039 42.8736V78.977C188.039 83.1311 184.671 86.4986 180.517 86.4986C176.363 86.4986 172.996 83.1311 172.996 78.977V42.8736C172.996 41.276 172.128 39.1949 169.46 37.2383C166.796 35.2849 162.752 33.8478 157.952 33.8478C153.153 33.8478 149.108 35.2849 146.445 37.2383C143.777 39.1949 142.909 41.276 142.909 42.8736V78.977C142.909 83.1311 139.542 86.4986 135.388 86.4986C131.234 86.4986 127.866 83.1311 127.866 78.977V42.8736C127.866 41.276 126.999 39.1949 124.331 37.2383C121.667 35.2849 117.623 33.8478 112.823 33.8478C108.023 33.8478 103.979 35.2849 101.316 37.2383Z" fill="#FF8743"/>
<path fill-rule="evenodd" clip-rule="evenodd" d="M33.8469 72.2074C44.232 72.2074 52.6508 63.7887 52.6508 53.4036C52.6508 43.0185 44.232 34.5997 33.8469 34.5997C23.4619 34.5997 15.0431 43.0185 15.0431 53.4036C15.0431 63.7887 23.4619 72.2074 33.8469 72.2074ZM33.8469 87.2505C52.5401 87.2505 67.6939 72.0967 67.6939 53.4036C67.6939 34.7104 52.5401 19.5566 33.8469 19.5566C15.1538 19.5566 0 34.7104 0 53.4036C0 72.0967 15.1538 87.2505 33.8469 87.2505Z" fill="#FF8743"/>
<path fill-rule="evenodd" clip-rule="evenodd" d="M406.163 31.8284C391.462 31.8284 384.05 38.91 384.05 52.6503C384.05 66.0164 391.652 73.1765 406.163 73.5729L412.797 73.2002L410.517 84.7943C413.417 82.4323 416.757 79.4775 419.958 76.1097C427.085 68.611 429.382 62.5887 429.382 52.6503C429.382 40.0282 420.865 31.8284 406.163 31.8284ZM369.308 52.2546C369.308 32.4405 385.971 16.5469 406.163 16.5469C426.355 16.5469 443.019 32.3745 443.019 52.2546C443.019 71.078 436.853 76.1497 429.382 84.0091C421.707 92.0832 411.652 97.2378 409.013 99.0234C405.104 101.669 399.987 98.7977 399.987 94.2567L397.686 84.0091C380.644 84.0091 369.308 71.078 369.308 52.2546Z" fill="#FF8743"/>
</svg>
