<svg width="74" height="84" viewBox="0 0 74 84" fill="none" xmlns="http://www.w3.org/2000/svg">
<path fill-rule="evenodd" clip-rule="evenodd" d="M36.8556 15.2815C22.1539 15.2815 14.7422 22.3632 14.7422 36.1034C14.7422 49.4696 22.3445 56.6297 36.8556 57.026L43.4896 56.6533L41.2094 68.2474C44.1091 65.8854 47.4489 62.9306 50.6501 59.5629C57.7778 52.0641 60.0745 46.0418 60.0745 36.1034C60.0745 23.4813 51.5572 15.2815 36.8556 15.2815ZM0 35.7077C0 15.8936 16.6633 0 36.8556 0C57.0478 0 73.7111 15.8276 73.7111 35.7077C73.7111 54.5312 67.5451 59.6028 60.0745 67.4622C52.3999 75.5363 42.3447 80.6909 39.7058 82.4765C35.796 85.1221 30.6792 82.2508 30.6792 77.7098L28.3788 67.4622C11.3361 67.4622 0 54.5312 0 35.7077Z" fill="white"/>
</svg>
