<svg width="104" height="118" viewBox="0 0 104 118" fill="none" xmlns="http://www.w3.org/2000/svg">
<path fill-rule="evenodd" clip-rule="evenodd" d="M51.7498 21.4568C31.1069 21.4568 20.6999 31.4002 20.6999 50.6929C20.6999 69.4604 31.3744 79.5139 51.7498 80.0705L61.0648 79.5471L57.8631 95.8265C61.9347 92.51 66.6242 88.3611 71.119 83.6324C81.1273 73.1034 84.3522 64.6475 84.3522 50.6929C84.3522 32.9702 72.3927 21.4568 51.7498 21.4568ZM0 50.1373C1.14572e-10 22.3163 23.3973 0 51.7498 0C80.1023 0 103.5 22.2236 103.5 50.1373C103.5 76.5674 94.8418 83.6885 84.3522 94.7239C73.576 106.061 59.4572 113.298 55.7519 115.806C50.2621 119.52 43.0774 115.489 43.0774 109.113L39.8474 94.7239C15.9173 94.7239 -1.08844e-10 76.5674 0 50.1373Z" fill="#4D4A9D"/>
</svg>
