<svg width="140" height="160" viewBox="0 0 140 160" fill="none" xmlns="http://www.w3.org/2000/svg">
<path d="M68.2692 148.167C68.2692 148.958 69.1398 149.428 69.7945 148.983C79.2989 142.527 130 106.296 130 68.0826C130 36.0045 103.137 10 70 10C36.8629 10 10 36.0045 10 68.0826C10 99.6003 35.9326 123.844 68.2692 124.731V148.167Z" fill="white"/>
<path d="M68.2692 124.731H78.2692V115.001L68.5433 114.735L68.2692 124.731ZM69.7945 148.983L75.4135 157.255L69.7945 148.983ZM120 68.0826C120 83.1163 109.738 99.2688 96.2 113.566C83.0499 127.455 68.6678 137.659 64.1755 140.711L75.4135 157.255C80.4255 153.851 96.1462 142.712 110.723 127.317C124.912 112.332 140 91.2625 140 68.0826H120ZM70 20C97.9229 20 120 41.831 120 68.0826H140C140 30.178 108.351 0 70 0V20ZM20 68.0826C20 41.831 42.0771 20 70 20V0C31.6487 0 0 30.178 0 68.0826H20ZM68.5433 114.735C40.9823 113.979 20 93.5674 20 68.0826H0C0 105.633 30.8828 133.71 67.9951 134.727L68.5433 114.735ZM58.2692 124.731V148.167H78.2692V124.731H58.2692ZM64.1755 140.711C70.2919 136.556 78.2692 141.092 78.2692 148.167H58.2692C58.2692 156.825 67.9876 162.299 75.4135 157.255L64.1755 140.711Z" fill="#4D4A9D"/>
<path d="M38.7991 91.1793C34.8736 92.2311 28.612 91.7974 27.6948 88.3744C26.7776 84.9513 30.3586 81.0176 35.6933 79.5882C41.0279 78.1588 46.0961 79.7749 47.0133 83.198C47.9305 86.621 42.7246 90.1275 38.7991 91.1793Z" fill="white"/>
<path d="M100.401 91.1793C104.326 92.2311 110.588 91.7974 111.505 88.3744C112.422 84.9513 108.841 81.0176 103.506 79.5882C98.1718 78.1588 93.1036 79.7749 92.1864 83.198C91.2692 86.621 96.4751 90.1275 100.401 91.1793Z" fill="white"/>
<path d="M91.374 48.6475C92.4725 48.2704 94.1581 48.5639 96.7324 50.1982C99.3359 51.8511 101.174 53.0862 102.474 54.1406C103.772 55.1935 104.499 56.0393 104.919 56.9004C105.337 57.7583 105.473 58.6813 105.496 59.9443C105.507 60.5772 105.491 61.2822 105.471 62.1006C105.45 62.916 105.427 63.8374 105.427 64.8877C105.427 68.987 104.444 72.6742 102.882 75.3193C101.313 77.9757 99.2165 79.5 97 79.5C94.7835 79.5 92.6873 77.9757 91.1182 75.3193C89.5558 72.6742 88.5732 68.987 88.5732 64.8877C88.5732 62.7536 88.4805 60.4229 88.5039 58.0811C88.5271 55.7629 88.6668 53.5662 89.1152 51.8486C89.5683 50.1134 90.2952 49.0178 91.374 48.6475Z" fill="#4D4A9D" stroke="#4D4A9D"/>
<path d="M95.6621 52.0127C95.8147 51.9517 96.1213 51.9367 96.6875 52.3896C97.3209 52.8963 97.8072 53.2755 98.1953 53.6133C98.5804 53.9484 98.8389 54.2179 99.0215 54.4912C99.3712 55.0146 99.5 55.634 99.5 56.999C99.5 58.3047 99.1812 59.4626 98.6924 60.2773C98.1976 61.102 97.5838 61.499 97 61.499C96.4162 61.499 95.8024 61.102 95.3076 60.2773C94.8188 59.4626 94.5 58.3047 94.5 56.999C94.5 55.6246 94.6275 53.9539 95.0303 52.8906C95.2366 52.346 95.4669 52.0908 95.6621 52.0127Z" fill="white" stroke="#4D4A9D"/>
<path d="M51.7744 48.6475C50.6759 48.2704 48.9903 48.5639 46.416 50.1982C43.8126 51.8511 41.9749 53.0862 40.6748 54.1406C39.3766 55.1935 38.6491 56.0393 38.2295 56.9004C37.8115 57.7583 37.6751 58.6813 37.6523 59.9443C37.641 60.5772 37.6573 61.2822 37.6777 62.1006C37.6981 62.916 37.7217 63.8374 37.7217 64.8877C37.7217 68.987 38.7042 72.6742 40.2666 75.3193C41.8357 77.9757 43.932 79.5 46.1484 79.5C48.3649 79.5 50.4612 77.9757 52.0303 75.3193C53.5927 72.6742 54.5752 68.987 54.5752 64.8877C54.5752 62.7536 54.6679 60.4229 54.6445 58.0811C54.6214 55.7629 54.4817 53.5662 54.0332 51.8486C53.5801 50.1134 52.8533 49.0178 51.7744 48.6475Z" fill="#4D4A9D" stroke="#4D4A9D"/>
<path d="M47.3379 51.5322C47.1853 51.4712 46.8787 51.4562 46.3125 51.9092C45.6791 52.4159 45.1928 52.7951 44.8047 53.1328C44.4196 53.4679 44.1611 53.7375 43.9785 54.0107C43.6288 54.5341 43.5 55.1535 43.5 56.5186C43.5 57.8242 43.8188 58.9821 44.3076 59.7969C44.8024 60.6216 45.4162 61.0186 46 61.0186C46.5838 61.0186 47.1976 60.6216 47.6924 59.7969C48.1812 58.9821 48.5 57.8242 48.5 56.5186C48.5 55.1441 48.3725 53.4734 47.9697 52.4102C47.7634 51.8655 47.5331 51.6103 47.3379 51.5322Z" fill="white" stroke="#4D4A9D"/>
</svg>
