<svg width="64" height="115" viewBox="0 0 64 115" fill="none" xmlns="http://www.w3.org/2000/svg">
<path fill-rule="evenodd" clip-rule="evenodd" d="M10 0C15.5228 0 20 4.47715 20 10V54.8037L48.8407 37.4337C53.5718 34.5843 59.7169 36.1097 62.5663 40.8407C65.4157 45.5718 63.8903 51.7169 59.1593 54.5663L27.9772 73.3465L59.9413 96.9563C64.3837 100.238 65.325 106.499 62.0437 110.941C58.7623 115.384 52.501 116.325 48.0587 113.044L20 92.3185V105C20 110.523 15.5228 115 10 115C4.47715 115 0 110.523 0 105V10C0 4.47715 4.47715 0 10 0Z" fill="#FF177B"/>
</svg>
